<svg width="363" height="130" viewBox="0 0 363 130" fill="none" xmlns="http://www.w3.org/2000/svg">
<path d="M84.8332 24.3752C76.3536 24.3752 68.5868 27.613 62.7351 32.8887C56.8835 27.613 49.1167 24.3752 40.6371 24.3752C22.3337 24.3752 7.53536 39.274 7.53536 57.6263C7.53536 64.1326 8.57501 70.1648 10.3814 75.754C14.7039 89.4184 23.453 100.157 32.5131 107.943C41.542 115.703 51.1889 120.8 57.8752 123.079C59.4744 123.638 61.2374 123.825 62.7351 123.825C64.2327 123.825 65.9953 123.638 67.5944 123.08C74.2807 120.8 83.928 115.703 92.9571 107.943C102.017 100.157 110.766 89.4182 115.089 75.7537C116.895 70.1646 117.935 64.1325 117.935 57.6263C117.935 39.274 103.137 24.3752 84.8332 24.3752Z" fill="#9610FF" stroke="white" stroke-width="10.859"/>
<path d="M125.544 5.57051C121.247 5.57051 117.255 6.94701 114 9.27088C110.745 6.94701 106.753 5.57051 102.456 5.57051C91.4811 5.57051 82.5705 14.4564 82.5705 25.4461C82.5705 29.1087 83.1597 32.5119 84.1834 35.6627C86.6319 43.3498 91.5537 49.3084 96.5342 53.5629C101.484 57.7915 106.804 60.606 110.622 61.9019C111.813 62.314 113.038 62.4295 114 62.4295C114.962 62.4295 116.187 62.3139 117.377 61.9019C121.196 60.606 126.516 57.7915 131.466 53.5629C136.446 49.3084 141.368 43.3499 143.817 35.6629C144.84 32.512 145.429 29.1087 145.429 25.4461C145.429 14.4564 136.519 5.57051 125.544 5.57051Z" fill="#9610FF" stroke="white" stroke-width="10.859"/>
<path d="M153.499 88.9044H157.331V108.344H153.499V88.9044ZM171.26 94.0697C174.204 94.0697 176.509 96.1247 176.509 99.8182V108.344H172.926V100.263C172.926 98.3741 171.788 97.4022 170.177 97.4022C168.427 97.4022 167.122 98.4297 167.122 100.846V108.344H163.54V94.4585H167.122V96.0137C167.955 94.764 169.399 94.0697 171.26 94.0697ZM194.536 94.4585V108.344H190.953V97.902H186.871V108.344H183.289V97.902H181.289V94.4585H183.289V94.3197C183.289 90.4873 185.399 88.5156 189.815 88.5156C190.87 88.5156 191.925 88.6545 193.064 88.9044V92.1813C191.898 92.0425 190.815 91.9592 189.815 91.9592C187.954 91.9592 186.871 92.4313 186.871 94.3197V94.4585H194.536ZM208.3 94.0697C211.244 94.0697 213.549 96.1247 213.549 99.8182V108.344H209.966V100.263C209.966 98.3741 208.828 97.4022 207.217 97.4022C205.467 97.4022 204.162 98.4297 204.162 100.846V108.344H200.58V94.4585H204.162V96.0137C204.995 94.764 206.439 94.0697 208.3 94.0697ZM221.162 92.7923C219.968 92.7923 218.968 91.7925 218.968 90.5984C218.968 89.4043 219.968 88.3768 221.162 88.3768C222.384 88.3768 223.383 89.4043 223.383 90.5984C223.383 91.7925 222.384 92.7923 221.162 92.7923ZM219.385 108.344V94.4585H222.967V108.344H219.385ZM236.965 97.902H233.827V103.678C233.827 105.178 234.91 105.206 236.965 105.095V108.344C231.939 108.899 230.245 107.427 230.245 103.678V97.902H227.829V94.4585H230.245V91.6537L233.827 90.5706V94.4585H236.965V97.902ZM244.861 102.873C245.361 104.706 246.888 105.483 248.777 105.483C250.165 105.483 251.276 104.9 251.887 104.095L254.775 105.761C253.47 107.649 251.387 108.733 248.721 108.733C244.056 108.733 241.112 105.539 241.112 101.401C241.112 97.2633 244.084 94.0697 248.444 94.0697C252.554 94.0697 255.469 97.3189 255.469 101.401C255.469 101.929 255.414 102.401 255.331 102.873H244.861ZM244.806 100.096H251.887C251.443 98.0964 249.943 97.2911 248.444 97.2911C246.527 97.2911 245.222 98.3186 244.806 100.096ZM289.656 88.9044V108.344H285.852V95.7359L280.381 104.761H279.937L274.466 95.7637V108.344H270.634V88.9044H274.577L280.159 98.0964L285.713 88.9044H289.656ZM306.442 94.4585H310.024V108.344H306.442V106.705C305.442 107.955 303.942 108.733 301.915 108.733C298.222 108.733 295.167 105.539 295.167 101.401C295.167 97.2633 298.222 94.0697 301.915 94.0697C303.942 94.0697 305.442 94.8473 306.442 96.097V94.4585ZM302.582 105.317C304.803 105.317 306.442 103.734 306.442 101.401C306.442 99.0684 304.803 97.4855 302.582 97.4855C300.388 97.4855 298.749 99.0684 298.749 101.401C298.749 103.734 300.388 105.317 302.582 105.317ZM323.992 97.902H320.854V103.678C320.854 105.178 321.937 105.206 323.992 105.095V108.344C318.966 108.899 317.272 107.427 317.272 103.678V97.902H314.856V94.4585H317.272V91.6537L320.854 90.5706V94.4585H323.992V97.902ZM335.47 108.733C331.249 108.733 328.139 105.539 328.139 101.401C328.139 97.2633 331.249 94.0697 335.47 94.0697C338.192 94.0697 340.552 95.5138 341.691 97.6521L338.608 99.4572C338.053 98.3186 336.859 97.5966 335.443 97.5966C333.304 97.5966 331.721 99.1795 331.721 101.401C331.721 103.595 333.304 105.178 335.443 105.178C336.887 105.178 338.081 104.484 338.636 103.345L341.747 105.122C340.552 107.288 338.192 108.733 335.47 108.733ZM354.138 94.0697C357.082 94.0697 359.387 96.1247 359.387 99.8182V108.344H355.805V100.263C355.805 98.3741 354.666 97.4022 353.055 97.4022C351.306 97.4022 350.001 98.4297 350.001 100.846V108.344H346.418V88.9044H350.001V96.0137C350.834 94.764 352.278 94.0697 354.138 94.0697Z" fill="#8D0FF0"/>
<path d="M193.484 56.3019V59.6344C193.484 71.5201 185.209 78.7405 174.323 78.7405C162.104 78.7405 153.328 69.7428 153.328 58.5791C153.328 47.3043 162.27 38.3066 173.712 38.3066C181.154 38.3066 187.43 41.9723 190.707 47.1932L183.154 51.5254C181.543 48.9705 178.044 46.971 173.656 46.971C167.102 46.971 162.215 51.8031 162.215 58.6346C162.215 65.244 166.88 70.0761 174.434 70.0761C179.599 70.0761 182.987 67.7989 184.376 64.0776H173.989V56.3019H193.484ZM212.241 78.7405C204.076 78.7405 197.522 72.3533 197.522 64.0776C197.522 55.802 204.076 49.4148 212.241 49.4148C220.405 49.4148 226.959 55.802 226.959 64.0776C226.959 72.3533 220.405 78.7405 212.241 78.7405ZM212.241 70.6315C215.851 70.6315 218.628 68.0211 218.628 64.0776C218.628 60.1342 215.851 57.5238 212.241 57.5238C208.631 57.5238 205.853 60.1342 205.853 64.0776C205.853 68.0211 208.631 70.6315 212.241 70.6315ZM271.522 39.0842V77.9629H262.635V55.3577L252.583 71.8534H251.583L241.53 55.3577V77.9629H232.643V39.0842H241.53L252.083 56.3574L262.635 39.0842H271.522ZM286.063 67.4101C287.119 70.2982 289.673 71.298 292.728 71.298C295.005 71.298 296.949 70.4093 298.06 69.1874L304.725 73.0197C302.004 76.7965 297.894 78.7405 292.617 78.7405C283.12 78.7405 277.232 72.3533 277.232 64.0776C277.232 55.802 283.231 49.4148 292.006 49.4148C300.115 49.4148 306.114 55.691 306.114 64.0776C306.114 65.244 306.003 66.3548 305.78 67.4101H286.063ZM285.897 61.1895H297.838C296.949 57.9681 294.45 56.8018 291.951 56.8018C288.785 56.8018 286.674 58.3569 285.897 61.1895ZM318.705 67.4101C319.76 70.2982 322.315 71.298 325.369 71.298C327.647 71.298 329.591 70.4093 330.701 69.1874L337.366 73.0197C334.645 76.7965 330.535 78.7405 325.258 78.7405C315.761 78.7405 309.873 72.3533 309.873 64.0776C309.873 55.802 315.872 49.4148 324.647 49.4148C332.756 49.4148 338.755 55.691 338.755 64.0776C338.755 65.244 338.644 66.3548 338.422 67.4101H318.705ZM318.538 61.1895H330.479C329.591 57.9681 327.091 56.8018 324.592 56.8018C321.426 56.8018 319.315 58.3569 318.538 61.1895ZM359.634 58.1903H353.914V68.0211C353.914 70.4093 355.969 70.6315 359.634 70.4093V77.9629C348.748 79.0737 345.582 75.7968 345.582 68.0211V58.1903H341.139V50.1924H345.582V44.916L353.914 42.4167V50.1924H359.634V58.1903Z" fill="#8D0FF0"/>
</svg>
