<svg width="70" height="70" viewBox="0 0 70 70" fill="none" xmlns="http://www.w3.org/2000/svg">
<path d="M55.3814 0H14.6186C6.54497 0 0 6.54497 0 14.6186V55.3814C0 63.455 6.54497 70 14.6186 70H55.3814C63.455 70 70 63.455 70 55.3814V14.6186C70 6.54497 63.455 0 55.3814 0Z" fill="#F45D04"/>
<path d="M31.5528 34.5444C31.5528 31.4324 31.1635 29.1818 30.3848 27.7926C29.6061 26.4035 28.16 25.7103 26.0464 25.713C25.208 25.7182 24.3708 25.7753 23.5394 25.8839C22.6278 25.9979 21.9441 26.0915 21.5045 26.1688V46.7659C21.5045 47.6801 21.1414 48.5569 20.4949 49.2033C19.8485 49.8498 18.9717 50.213 18.0574 50.213C17.1432 50.213 16.2664 49.8498 15.62 49.2033C14.9735 48.5569 14.6104 47.6801 14.6104 46.7659V21.9403C14.61 21.7816 14.6627 21.6274 14.76 21.502C14.8573 21.3767 14.9937 21.2874 15.1476 21.2484C16.3956 20.9229 17.9543 20.6108 19.8237 20.3124C22.0762 19.9624 24.3529 19.7909 26.6324 19.7996C28.3497 19.7482 30.061 20.0244 31.6749 20.6136C32.7296 21.0285 33.7065 21.6188 34.5644 22.3595C34.6792 22.4458 34.8179 22.4944 34.9614 22.4988C35.105 22.5032 35.2463 22.4631 35.3662 22.3839C35.6958 22.1723 36.0784 21.9525 36.5098 21.7246C37.2042 21.3606 37.9237 21.0465 38.6627 20.7845C39.3295 20.549 40.0088 20.3506 40.6976 20.1903C41.9388 19.8902 43.2139 19.7534 44.4906 19.7833C46.2596 19.777 48.0127 20.1172 49.6511 20.7845C51.0609 21.3759 52.2824 22.3413 53.1836 23.5763C54.0776 24.8747 54.6776 26.3525 54.9417 27.9066C55.2767 29.7391 55.4389 31.599 55.4261 33.4618V46.7659C55.4261 47.2186 55.3369 47.6668 55.1637 48.085C54.9904 48.5032 54.7365 48.8832 54.4164 49.2033C54.0963 49.5234 53.7163 49.7773 53.2981 49.9506C52.8799 50.1238 52.4316 50.213 51.979 50.213C51.0647 50.213 50.188 49.8498 49.5415 49.2033C48.895 48.5569 48.5319 47.6801 48.5319 46.7659V34.5566C48.5319 31.4446 48.152 29.194 47.3923 27.8048C46.6326 26.4157 45.1702 25.7225 43.0051 25.7252C41.9416 25.7163 40.8848 25.8954 39.8836 26.2543C39.287 26.4648 38.7063 26.7178 38.1458 27.0112C38.0088 27.0916 37.9022 27.215 37.8426 27.3622C37.783 27.5094 37.7737 27.6721 37.8162 27.8252C38.0432 28.6421 38.2011 29.4766 38.2883 30.3199C38.406 31.4556 38.463 32.5968 38.4592 33.7386V46.7618C38.4597 47.2159 38.3706 47.6655 38.1968 48.085C38.023 48.5045 37.7681 48.8855 37.4467 49.2062C37.1252 49.5269 36.7436 49.7809 36.3237 49.9537C35.9038 50.1265 35.4539 50.2146 34.9999 50.213C34.0857 50.213 33.2089 49.8498 32.5624 49.2033C31.916 48.5569 31.5528 47.6801 31.5528 46.7659V34.5444Z" fill="white"/>
</svg>
