<svg width="753" height="449" viewBox="0 0 753 449" fill="none" xmlns="http://www.w3.org/2000/svg">
<g clip-path="url(#clip0_902_25157)">
<rect width="753" height="449" fill="#9F23FF"/>
<path opacity="0.1" d="M62 235.087C62 235.087 157.677 345.569 270.668 359.041C402.834 374.799 548.545 338.272 572.411 259.462C591.182 197.479 552.895 110.836 447.811 116.187C373.909 119.949 339.57 179.586 342.226 221.116C352 373.95 627 437.95 627 437.95" stroke="#4B164C" stroke-width="2" stroke-dasharray="8 8"/>
<path d="M455.67 449.232C456.027 450.474 456.689 451.554 457.528 452.539C460.328 455.822 464.77 456.962 468.173 459.472C468.534 459.742 468.898 460.034 469.265 460.301C469.656 460.587 470.178 461.289 470.751 461.259C471.315 461.157 471.651 460.346 471.965 459.979C472.263 459.631 472.543 459.261 472.835 458.916C475.559 455.674 479.606 453.51 481.563 449.656C482.151 448.501 482.54 447.293 482.601 446C482.663 444.702 482.434 442.882 481.774 441.728C480.22 439.013 477.954 437.623 475.102 437.984L474.781 438.026C473.667 438.176 472.611 438.561 471.638 439.115C470.595 439.713 469.922 440.5 469.024 441.245C468.682 441.523 468.157 441.585 467.761 441.396C466.712 440.885 465.875 440.277 464.722 439.947C463.644 439.639 462.53 439.516 461.409 439.629C461.306 439.641 461.199 439.652 461.09 439.667C458.236 439.993 456.349 441.881 455.475 444.888C455.102 446.162 455.305 447.983 455.67 449.232Z" fill="#9610FF" fill-opacity="0.7"/>
<path d="M245.565 446.169C246.705 448.243 248.325 449.903 250.223 451.321C256.552 456.045 264.954 456.268 272.05 459.364C272.805 459.699 273.573 460.071 274.338 460.4C275.151 460.752 276.368 461.792 277.38 461.505C278.347 461.091 278.62 459.505 279.034 458.72C279.426 457.976 279.779 457.201 280.161 456.464C283.721 449.555 290.083 444.031 292.027 436.342C292.611 434.036 292.821 431.717 292.407 429.38C291.994 427.035 290.851 423.874 289.205 422.082C285.331 417.864 280.718 416.304 275.766 418.115L275.209 418.322C273.278 419.046 271.546 420.165 270.03 421.553C268.406 423.049 267.522 424.732 266.215 426.43C265.717 427.066 264.803 427.392 264.019 427.216C261.938 426.731 260.196 425.988 258.001 425.868C255.95 425.758 253.908 425.994 251.95 426.654C251.771 426.718 251.583 426.781 251.395 426.852C246.424 428.601 243.813 432.749 243.465 438.483C243.31 440.912 244.409 444.084 245.565 446.169Z" fill="#9610FF"/>
<path d="M184.686 392.957C185.254 393.258 185.87 393.392 186.514 393.43C188.659 393.554 190.608 392.339 192.687 391.976C192.909 391.939 193.139 391.908 193.362 391.868C193.6 391.826 194.032 391.88 194.22 391.662C194.379 391.422 194.206 391.019 194.183 390.778C194.162 390.549 194.127 390.319 194.105 390.094C193.889 387.982 194.519 385.764 193.819 383.719C193.609 383.105 193.312 382.544 192.87 382.074C192.427 381.601 191.697 381.053 191.055 380.892C189.545 380.514 188.261 380.853 187.401 382.012L187.305 382.143C186.972 382.599 186.744 383.115 186.604 383.659C186.457 384.245 186.505 384.762 186.46 385.346C186.441 385.566 186.281 385.778 186.076 385.856C185.529 386.059 185.022 386.152 184.503 386.455C184.019 386.739 183.589 387.1 183.24 387.546C183.209 387.587 183.176 387.63 183.143 387.674C182.27 388.822 182.291 390.161 183.064 391.52C183.39 392.098 184.112 392.655 184.686 392.957Z" fill="#AF48FF" fill-opacity="0.73"/>
<path d="M495.092 362.415C494.694 363.415 494.578 364.466 494.627 365.546C494.793 369.147 497.128 372.19 498.084 375.595C498.183 375.959 498.274 376.338 498.378 376.704C498.489 377.093 498.474 377.823 498.866 378.1C499.288 378.324 499.922 377.965 500.316 377.886C500.689 377.811 501.061 377.714 501.429 377.638C504.87 376.915 508.631 377.583 511.88 376.063C512.855 375.608 513.727 375.016 514.426 374.197C515.128 373.377 515.906 372.064 516.06 370.966C516.423 368.38 515.644 366.297 513.587 365.062L513.355 364.924C512.547 364.447 511.657 364.155 510.736 364.016C509.746 363.87 508.903 364.04 507.933 364.065C507.567 364.071 507.191 363.84 507.027 363.512C506.599 362.635 506.359 361.804 505.77 360.991C505.219 360.232 504.55 359.576 503.756 359.072C503.682 359.027 503.606 358.978 503.527 358.932C501.487 357.672 499.285 357.938 497.179 359.462C496.284 360.105 495.49 361.406 495.092 362.415Z" fill="#9610FF" fill-opacity="0.3"/>
<path d="M521.642 254.884C522.118 255.317 522.682 255.602 523.296 255.799C525.343 256.456 527.531 255.767 529.634 255.935C529.858 255.955 530.089 255.982 530.315 255.999C530.556 256.018 530.961 256.178 531.197 256.014C531.41 255.821 531.341 255.388 531.379 255.149C531.415 254.922 531.438 254.69 531.472 254.466C531.785 252.367 532.942 250.376 532.769 248.22C532.718 247.572 532.568 246.955 532.257 246.389C531.944 245.821 531.372 245.107 530.79 244.791C529.421 244.046 528.094 244.054 526.975 244.961L526.849 245.064C526.414 245.422 526.066 245.865 525.796 246.358C525.508 246.888 525.427 247.401 525.239 247.955C525.167 248.164 524.959 248.329 524.742 248.353C524.162 248.413 523.647 248.376 523.07 248.54C522.531 248.694 522.025 248.936 521.578 249.281C521.537 249.313 521.494 249.346 521.452 249.381C520.323 250.274 520.013 251.576 520.426 253.087C520.599 253.727 521.161 254.448 521.642 254.884Z" fill="#9610FF" fill-opacity="0.5"/>
<path d="M147.092 244.657C146.694 245.657 146.578 246.708 146.627 247.788C146.793 251.389 149.128 254.432 150.084 257.837C150.183 258.201 150.274 258.58 150.378 258.946C150.489 259.335 150.474 260.065 150.866 260.342C151.288 260.566 151.922 260.207 152.316 260.128C152.689 260.053 153.061 259.956 153.429 259.879C156.87 259.157 160.631 259.825 163.88 258.305C164.855 257.849 165.727 257.257 166.426 256.439C167.128 255.619 167.906 254.306 168.06 253.207C168.423 250.622 167.644 248.539 165.587 247.304L165.355 247.165C164.547 246.689 163.657 246.397 162.736 246.258C161.746 246.112 160.903 246.282 159.933 246.307C159.567 246.313 159.191 246.082 159.027 245.754C158.599 244.877 158.359 244.046 157.77 243.233C157.219 242.474 156.55 241.818 155.756 241.314C155.682 241.269 155.606 241.22 155.527 241.174C153.487 239.914 151.285 240.18 149.179 241.704C148.284 242.347 147.49 243.648 147.092 244.657Z" fill="#9610FF" fill-opacity="0.7"/>
<path d="M419.625 116.182C419.519 117.037 419.641 117.874 419.897 118.7C420.752 121.452 423.173 123.329 424.6 125.769C424.75 126.03 424.897 126.305 425.052 126.566C425.216 126.845 425.352 127.413 425.71 127.547C426.083 127.634 426.501 127.227 426.789 127.085C427.063 126.951 427.331 126.799 427.6 126.665C430.117 125.402 433.162 125.151 435.369 123.31C436.032 122.758 436.587 122.122 436.963 121.346C437.34 120.568 437.677 119.393 437.575 118.511C437.334 116.437 436.311 114.984 434.47 114.449L434.262 114.389C433.541 114.186 432.794 114.141 432.053 114.222C431.257 114.312 430.639 114.615 429.894 114.833C429.612 114.913 429.274 114.811 429.081 114.591C428.573 113.999 428.219 113.405 427.6 112.897C427.02 112.423 426.37 112.052 425.654 111.824C425.588 111.804 425.519 111.782 425.449 111.762C423.616 111.204 421.966 111.861 420.643 113.47C420.081 114.151 419.729 115.32 419.625 116.182Z" fill="#9610FF" fill-opacity="0.3"/>
<path d="M519.686 103.091C520.254 103.392 520.87 103.526 521.514 103.564C523.659 103.688 525.608 102.473 527.687 102.11C527.909 102.073 528.139 102.042 528.362 102.002C528.6 101.96 529.032 102.014 529.22 101.796C529.379 101.556 529.206 101.153 529.183 100.912C529.162 100.683 529.127 100.453 529.105 100.228C528.889 98.1161 529.519 95.8984 528.819 93.8525C528.609 93.2386 528.312 92.6783 527.87 92.2078C527.427 91.7353 526.697 91.1868 526.055 91.026C524.545 90.6477 523.261 90.9867 522.401 92.1457L522.305 92.2765C521.972 92.7325 521.744 93.2486 521.604 93.7935C521.457 94.379 521.505 94.8959 521.46 95.48C521.441 95.7001 521.281 95.9119 521.076 95.9899C520.529 96.1929 520.022 96.2855 519.503 96.5889C519.019 96.8727 518.589 97.2341 518.24 97.6795C518.209 97.7211 518.176 97.7636 518.143 97.8083C517.27 98.9557 517.291 100.295 518.064 101.654C518.39 102.232 519.112 102.789 519.686 103.091Z" fill="#9610FF" fill-opacity="0.7"/>
<path d="M255.036 99.5662C255.923 100.782 257.079 101.698 258.391 102.438C262.767 104.903 268.088 104.358 272.816 105.732C273.32 105.883 273.835 106.055 274.344 106.2C274.886 106.355 275.737 106.913 276.353 106.649C276.93 106.309 276.975 105.285 277.173 104.756C277.36 104.254 277.52 103.736 277.702 103.24C279.393 98.5887 282.963 94.5828 283.57 89.5711C283.753 88.0675 283.698 86.5868 283.249 85.1457C282.799 83.6993 281.823 81.7976 280.64 80.8007C277.855 78.4546 274.818 77.8465 271.838 79.3942L271.503 79.5699C270.343 80.1845 269.34 81.0326 268.495 82.0325C267.59 83.1089 267.167 84.2432 266.48 85.4221C266.216 85.8642 265.666 86.1442 265.157 86.0973C263.804 85.9613 262.645 85.634 261.25 85.7378C259.946 85.8357 258.676 86.1513 257.494 86.728C257.386 86.7828 257.273 86.8378 257.159 86.8981C254.163 88.4079 252.849 91.2392 253.091 94.8862C253.19 96.4322 254.139 98.3448 255.036 99.5662Z" fill="#9610FF" fill-opacity="0.5"/>
<path d="M487.625 37.6763C487.519 38.5315 487.641 39.3684 487.897 40.1944C488.752 42.9471 491.173 44.824 492.6 47.2634C492.75 47.5249 492.897 47.7997 493.052 48.0611C493.216 48.3398 493.352 48.9077 493.71 49.0415C494.083 49.1286 494.501 48.7212 494.789 48.5798C495.063 48.4456 495.331 48.2939 495.6 48.1598C498.117 46.8971 501.162 46.6453 503.369 44.8048C504.032 44.253 504.587 43.6167 504.963 42.8409C505.34 42.0628 505.677 40.8875 505.575 40.006C505.334 37.9314 504.311 36.4785 502.47 35.9432L502.262 35.8838C501.541 35.6803 500.794 35.636 500.053 35.717C499.257 35.8063 498.639 36.1101 497.894 36.3277C497.612 36.4072 497.274 36.3058 497.081 36.0852C496.573 35.494 496.219 34.9001 495.6 34.3917C495.02 33.9172 494.37 33.5463 493.654 33.3183C493.588 33.2984 493.519 33.2764 493.449 33.2566C491.616 32.6991 489.966 33.3552 488.643 34.9648C488.081 35.6454 487.729 36.8145 487.625 37.6763Z" fill="#9610FF" fill-opacity="0.3"/>
<path d="M178.553 26.0571C178.047 27.2454 177.879 28.5029 177.906 29.8005C178.003 34.1253 180.718 37.8428 181.768 41.9551C181.877 42.3949 181.975 42.8523 182.09 43.2937C182.211 43.764 182.173 44.6395 182.635 44.9822C183.135 45.2634 183.906 44.8508 184.38 44.7678C184.83 44.6886 185.28 44.5822 185.723 44.5014C189.871 43.7333 194.364 44.6433 198.305 42.9131C199.488 42.3949 200.551 41.7097 201.412 40.7484C202.278 39.7848 203.248 38.2317 203.464 36.9182C203.974 33.8274 203.098 31.3054 200.665 29.7644L200.391 29.5921C199.435 28.997 198.376 28.6209 197.275 28.4279C196.091 28.2242 195.075 28.4037 193.911 28.4058C193.472 28.4025 193.027 28.1151 192.84 27.7167C192.351 26.6519 192.086 25.6481 191.403 24.6562C190.764 23.7302 189.979 22.9237 189.042 22.2959C188.955 22.2396 188.865 22.1792 188.771 22.1212C186.36 20.5515 183.71 20.8074 181.14 22.5746C180.049 23.3205 179.059 24.8584 178.553 26.0571Z" fill="#9610FF" fill-opacity="0.7"/>
<path d="M365.07 21.0567C364.275 23.2877 364.105 25.6078 364.299 27.9792C364.951 35.8828 370.33 42.383 372.703 49.7913C372.951 50.5841 373.18 51.4102 373.44 52.2051C373.714 53.0522 373.74 54.6586 374.623 55.2342C375.57 55.6929 376.935 54.8521 377.793 54.6472C378.607 54.4522 379.419 54.2074 380.221 54.0101C387.728 52.1419 396.05 53.3062 403.072 49.7005C405.179 48.6203 407.048 47.2479 408.519 45.3928C409.997 43.5328 411.602 40.5824 411.853 38.1548C412.445 32.4419 410.564 27.9242 405.943 25.3754L405.422 25.0907C403.607 24.1084 401.628 23.5382 399.591 23.3078C397.403 23.067 395.563 23.5088 393.433 23.6424C392.629 23.6854 391.783 23.2091 391.397 22.5007C390.385 20.6068 389.791 18.7992 388.431 17.0604C387.159 15.4371 385.635 14.0487 383.85 13.0044C383.684 12.911 383.514 12.8105 383.336 12.7148C378.75 10.1112 373.93 10.8748 369.421 14.3955C367.506 15.8821 365.863 18.8068 365.07 21.0567Z" fill="#9610FF" fill-opacity="0.7"/>
<path d="M698.071 235.162L700.371 213.849C701.583 202.474 702.396 194.974 701.758 190.249H701.983C706.262 190.248 710.412 188.783 713.743 186.099C717.075 183.414 719.388 179.671 720.299 175.49C721.209 171.31 720.663 166.943 718.75 163.116C716.837 159.289 713.673 156.231 709.782 154.45C705.892 152.669 701.51 152.273 697.363 153.326C693.216 154.379 689.554 156.819 686.985 160.241C684.416 163.662 683.094 167.86 683.239 172.136C683.385 176.412 684.988 180.51 687.783 183.749C683.708 186.262 678.383 191.574 670.371 199.562C664.183 205.724 661.096 208.799 657.646 209.274C655.734 209.538 653.787 209.265 652.021 208.487C648.846 207.087 646.721 203.287 642.483 195.674L620.108 155.562C617.496 150.874 615.308 146.937 613.333 143.787C618.337 141.237 622.336 137.077 624.687 131.978C627.038 126.878 627.604 121.136 626.293 115.675C624.982 110.215 621.871 105.355 617.461 101.879C613.051 98.402 607.599 96.5115 601.983 96.5115C596.368 96.5115 590.916 98.402 586.506 101.879C582.096 105.355 578.985 110.215 577.674 115.675C576.363 121.136 576.929 126.878 579.28 131.978C581.631 137.077 585.63 141.237 590.633 143.787C588.658 146.949 586.471 150.874 583.846 155.562L561.483 195.674C557.233 203.287 555.108 207.087 551.933 208.487C550.168 209.265 548.22 209.538 546.308 209.274C542.871 208.799 539.783 205.724 533.596 199.562C525.583 191.574 520.258 186.262 516.183 183.749C518.979 180.51 520.582 176.412 520.727 172.136C520.873 167.86 519.551 163.662 516.982 160.241C514.413 156.819 510.751 154.379 506.604 153.326C502.457 152.273 498.075 152.669 494.184 154.45C490.294 156.231 487.13 159.289 485.217 163.116C483.304 166.943 482.757 171.31 483.668 175.49C484.579 179.671 486.892 183.414 490.224 186.099C493.555 188.783 497.705 190.248 501.983 190.249H502.208C501.571 194.974 502.383 202.487 503.596 213.849L505.896 235.162C507.171 246.987 508.221 258.249 509.521 268.374H694.446C695.746 258.249 696.796 246.999 698.071 235.162ZM588.383 321.499H615.583C651.033 321.499 668.758 321.499 680.583 310.912C685.746 306.287 689.008 297.962 691.371 287.124H512.596C514.958 297.962 518.221 306.299 523.383 310.912C535.208 321.499 552.933 321.499 588.383 321.499Z" fill="#FFDE00"/>
</g>
<defs>
<clipPath id="clip0_902_25157">
<rect width="753" height="449" fill="white"/>
</clipPath>
</defs>
</svg>
