<svg width="259" height="232" viewBox="0 0 259 232" fill="none" xmlns="http://www.w3.org/2000/svg">
<g clip-path="url(#clip0_36_24680)">
<path d="M102.199 16.6002C101.599 16.8002 101.099 17.2002 100.599 17.6002C98.4992 19.6002 98.2992 22.6002 98.4992 25.3002C98.7992 28.2002 99.7992 31.2002 99.0992 34.0002C98.7992 35.1002 98.2992 36.2002 97.2992 36.9002C96.1992 37.7002 94.8992 37.6002 93.6992 37.3002C92.3992 37.0002 90.8992 36.4002 89.5992 37.0002C88.4992 37.5002 87.8992 38.6002 87.6992 39.8002C87.0992 42.7002 89.0992 45.5002 89.5992 48.2002C90.1992 51.2002 89.8992 54.2002 88.6992 57.0002C87.5992 59.6002 85.6992 61.8002 83.3992 63.4002C82.2992 64.2002 80.9992 64.8002 79.6992 65.2002C78.1992 65.6002 76.6992 65.8002 75.1992 66.2002C73.7992 66.6002 72.2992 67.2002 71.6992 68.6002C71.1992 69.6002 71.4992 73.9002 74.8992 77.7002C75.0992 78.0002 74.5992 78.4002 74.2992 78.2002C73.5992 77.8002 72.9992 77.4002 72.2992 77.0002C66.9992 73.4002 63.7992 67.3002 63.6992 60.9002C63.6992 57.5002 64.4992 54.1002 65.9992 51.1002C66.8992 49.4002 67.8992 47.8002 68.4992 46.0002C68.9992 44.4002 68.9992 42.7002 68.6992 41.1002C68.1992 37.9002 66.8992 35.0002 66.8992 31.7002C66.8992 28.8002 67.6992 25.9002 69.0992 23.4002C71.9992 18.1002 77.1992 14.5002 83.0992 13.2002C88.9992 11.9002 102.499 16.4002 102.199 16.6002Z" fill="#263238"/>
<path d="M102 16.5996C100.9 17.1996 99.9 17.8996 99.1 18.8996C98.4 19.7996 98.1 20.8996 97.9 21.9996C97.6 24.4996 98.3 26.8996 99 29.2996C99.6 31.4996 100.1 33.9996 99.3 36.1996C99 37.1996 98.4 38.0996 97.6 38.6996C96.7 39.3996 95.6 39.5996 94.4 39.3996C92.3 39.1996 89.8 38.1996 88 39.8996C86.3 41.4996 86.9 44.2996 87.3 46.2996C88.3 51.1996 90.4 57.3996 86.6 61.5996C84.7 63.7996 81.8 65.1996 79.1 66.0996C77.2 66.9996 74.7 67.7996 74 69.9996C74 70.0996 74.1 70.0996 74.1 69.9996C74.9 67.7996 77.5 67.2996 79.5 66.6996C81.8 65.9996 84.2 64.7996 86.1 63.2996C88.1 61.6996 89.1 59.3996 89.4 56.8996C89.7 54.2996 89.2 51.7996 88.7 49.2996C88.4 47.9996 88.1 46.7996 87.8 45.4996C87.6 44.2996 87.4 43.0996 87.7 41.9996C88 40.7996 89 39.9996 90.2 39.8996C91.4 39.7996 92.6 40.0996 93.8 40.2996C94.9 40.4996 96 40.4996 97 39.9996C97.8 39.5996 98.5 38.9996 99 38.2996C100.2 36.6996 100.5 34.5996 100.3 32.5996C100 29.7996 98.7 27.1996 98.4 24.3996C98.3 22.9996 98.3 21.3996 99 20.0996C99.7 18.6996 100.9 17.8996 102.1 17.0996C102.3 16.7996 102.2 16.5996 102 16.5996Z" fill="#263238"/>
<path d="M80.8995 11.8C74.9995 12.9 70.2995 17.7 68.3995 23.3C67.3995 26.5 67.1995 29.8 67.6995 33.1C68.1995 36.2 69.0995 39.2 68.8995 42.3C68.6995 45.8 66.5995 48.5 64.9995 51.4C63.6995 53.8 62.8995 56.4 62.6995 59.1C62.2995 64.3 64.0995 69.6 67.4995 73.5C67.8995 74 68.3995 74.5 68.8995 74.9C68.9995 75 68.9995 74.9 68.9995 74.8C65.1995 71.2 63.2995 65.9 63.3995 60.7C63.3995 58.1 63.9995 55.6 64.9995 53.3C66.2995 50.4 68.3995 48 69.3995 44.9C70.2995 42 69.7995 39 69.1995 36.1C68.5995 33 67.9995 29.9 68.3995 26.7C69.1995 20.8 72.9995 15.3 78.6995 13.1C84.9995 10.6 91.7995 12.6 97.7995 15.1C98.5995 15.4 99.3995 15.8 100.2 16.1C100.3 16.1 100.4 16 100.3 16C94.1995 13.3 87.5995 10.5 80.8995 11.8Z" fill="#263238"/>
<path d="M103.5 13.2998C102.6 12.7998 101.1 12.7998 100.6 13.2998C100.1 13.7998 99.6998 19.0998 100.6 20.0998C101.5 21.0998 103.5 19.6998 103.5 19.6998V13.2998Z" fill="#9610FF"/>
<path d="M129 57.2006C154.3 80.0006 177.7 104.901 179.5 117.601C182 135.201 171.2 140.101 166.3 140.201C153.1 140.301 129.1 86.7006 120.7 66.3006C112.7 46.4006 123.5 52.2006 129 57.2006Z" fill="#DD6A57"/>
<path d="M167.199 93.6002L139.099 108.9C139.099 108.9 121.599 76.6002 117.599 61.7002C113.599 46.7002 119.599 47.2002 132.799 58.8002C145.999 70.4002 167.199 93.6002 167.199 93.6002Z" fill="#C7C7C7"/>
<path d="M167.199 93.6002L139.099 108.9C139.099 108.9 121.599 76.6002 117.599 61.7002C113.599 46.7002 119.599 47.2002 132.799 58.8002C145.999 70.4002 167.199 93.6002 167.199 93.6002Z" fill="#9610FF"/>
<path opacity="0.1" d="M117.6 61.7002C121.6 76.7002 139.1 108.9 139.1 108.9L164.6 95.0002L117.5 50.7002C116 51.9002 115.9 55.5002 117.6 61.7002Z" fill="black"/>
<path d="M161.4 89.3006C150.6 96.6006 140.1 101.401 138 102.601C137.9 102.701 137.8 102.501 137.9 102.401C140 101.301 151.6 94.1006 161.3 89.1006C161.4 89.1006 161.5 89.3006 161.4 89.3006Z" fill="#263238"/>
<path d="M77 115C78.3 115.9 79.6 116.8 80.9 117.7C81.6 118.1 82.2 118.5 82.9 118.9C85 120.1 87.1 121.2 89.4 122.1C90.4 122.5 91.5 122.9 92.6 123.3C97.5 125.1 102.8 126.1 108.3 126.5C109.6 126.6 110.9 126.6 112.2 126.6C113.5 126.6 114.8 126.6 116.1 126.5C121.6 126.2 126.8 125.1 131.8 123.3C132.9 122.9 133.9 122.5 134.9 122.1C137.1 121.2 139.3 120.1 141.4 118.9C142.1 118.5 142.8 118.1 143.4 117.7H144.3L144.2 117.2L143.8 114.5L143.6 113.3L143.1 110.1L143 109.4C143 109.4 143.1 109.2 143.3 108.9C143.6 108.3 144.2 107.2 144.8 105.7C144.9 105.5 145 105.3 145 105.1C145.1 104.9 145.2 104.7 145.2 104.5C145.6 103.5 146 102.5 146.3 101.3C146.3 101.3 146.3 101.3 146.3 101.2C146.4 101 146.4 100.9 146.5 100.7C146.6 100.5 146.6 100.3 146.7 100.1C147 99.1005 147.2 98.0005 147.4 96.9005C147.5 96.5005 147.5 96.1005 147.6 95.7005C147.7 94.6005 147.8 93.6005 147.7 92.5005C147.7 92.4005 147.7 92.4005 147.7 92.3005C147.7 92.0005 147.7 91.8005 147.6 91.5005C147.6 91.4005 147.6 91.4005 147.6 91.3005C147.5 90.2005 147.3 89.1005 147 88.1005C147 87.9005 146.9 87.8005 146.8 87.6005V87.5005C146.7 87.3005 146.7 87.1005 146.6 86.9005C146.5 86.7005 146.4 86.5005 146.3 86.3005C146 85.7005 145.6 84.8005 144.9 83.7005C144.9 83.7005 144.9 83.6005 144.8 83.6005C144.6 83.3005 144.4 82.9005 144.2 82.5005C143.6 81.5005 143 80.5005 142.2 79.3005C142 79.0005 141.9 78.8005 141.7 78.5005C141.6 78.4005 141.5 78.2005 141.5 78.1005C140.9 77.1005 140.1 76.0005 139.4 74.9005C139.1 74.5005 138.9 74.1005 138.6 73.7005C137.9 72.7005 137.2 71.6005 136.4 70.5005C136.1 70.1005 135.8 69.7005 135.6 69.3005C134.8 68.2005 134.1 67.2005 133.3 66.1005C133.2 66.0005 133.2 65.9005 133.1 65.8005C132.9 65.5005 132.7 65.2005 132.4 64.9005C131.6 63.8005 130.8 62.7005 130 61.7005C129.9 61.5005 129.7 61.3005 129.6 61.2005C129.4 61.0005 129.3 60.8005 129.1 60.6005C128.2 59.5005 127.3 58.4005 126.4 57.4005C126.2 57.1005 126 56.9005 125.8 56.7005C124.5 55.3005 123.3 54.1005 122.2 53.0005C121.7 52.6005 121.2 52.2005 120.8 51.8005C120.6 51.7005 120.5 51.5005 120.3 51.4005C114.9 47.5005 107.7 48.9005 102.4 51.8005C102.3 51.8005 102.3 51.9005 102.2 51.9005C101.9 52.1005 101.6 52.2005 101.4 52.4005C101.3 52.4005 101.3 52.5005 101.2 52.5005C101 52.6005 100.7 52.8005 100.5 53.0005C100.5 53.0005 100.4 53.0005 100.4 53.1005C98.9 54.1005 97.7 55.2005 96.9 56.3005L96.8 56.4005C96.5 56.8005 96.3 57.1005 96 57.5005C95.2 58.6005 94.5 59.6005 93.8 60.7005C93.5 61.1005 93.3 61.5005 93 61.9005C92.3 62.9005 91.7 64.0005 91.1 65.1005C90.9 65.4005 90.8 65.7005 90.6 66.0005C90.5 66.1005 90.5 66.2005 90.4 66.3005C89.8 67.3005 89.3 68.4005 88.8 69.5005C88.6 69.8005 88.5 70.2005 88.3 70.6005V70.7005C88.3 70.7005 88.3 70.7005 88.3 70.8005C87.8 71.8005 87.4 72.9005 86.9 74.0005C86.8 74.3005 86.7 74.6005 86.6 74.8005C86.5 74.9005 86.5 75.0005 86.5 75.1005C86.1 76.1005 85.7 77.2005 85.3 78.3005C85.2 78.7005 85 79.1005 84.9 79.5005C84.6 80.5005 84.2 81.6005 83.9 82.7005C83.8 83.1005 83.7 83.5005 83.5 83.9005C83.2 84.9005 82.9 86.0005 82.6 87.1005C82.5 87.4005 82.4 87.7005 82.4 88.0005C82.4 88.1005 82.4 88.2005 82.3 88.3005C82 89.3005 81.8 90.4005 81.5 91.5005C81.4 91.9005 81.3 92.3005 81.2 92.7005C81 93.7005 80.7 94.8005 80.5 95.9005C80.4 96.3005 80.3 96.7005 80.2 97.1005C80 98.1005 79.8 99.2005 79.6 100.3C79.5 100.7 79.4 101.1 79.4 101.5C79.2 102.5 79 103.6 78.8 104.7C78.7 105.1 78.7 105.5 78.6 105.9C78.4 106.9 78.2 108 78.1 109.1C78.1 109.2 78.1 109.3 78 109.4C78 109.7 77.9 110 77.9 110.3C77.7 111.3 77.6 112.4 77.4 113.5C77.3 113.9 77.3 114.3 77.2 114.7C77 114.6 77 114.8 77 115Z" fill="#9610FF"/>
<path opacity="0.1" d="M100.2 53.0008H121.9C121.4 52.6008 120.9 52.2008 120.5 51.8008H102.2C102.1 51.8008 102.1 51.9008 102 51.9008C101.7 52.1008 101.4 52.2008 101.2 52.4008C101.1 52.4008 101.1 52.5008 101 52.5008C100.7 52.7008 100.5 52.8008 100.2 53.0008ZM95.7996 57.4008H126.1C125.9 57.1008 125.7 56.9008 125.5 56.7008C125.3 56.5008 125.2 56.4008 125.1 56.2008H96.6996L96.5996 56.3008C96.2996 56.7008 96.0996 57.1008 95.7996 57.4008ZM92.7996 61.8008H129.7C129.6 61.6008 129.4 61.4008 129.3 61.3008C129.1 61.1008 129 60.9008 128.8 60.7008H93.5996C93.2996 61.0008 93.0996 61.4008 92.7996 61.8008ZM90.1996 66.2008H133C132.9 66.1008 132.9 66.0008 132.8 65.9008C132.6 65.6008 132.4 65.3008 132.1 65.0008H90.8996C90.6996 65.3008 90.5996 65.6008 90.3996 65.9008C90.3996 66.0008 90.2996 66.1008 90.1996 66.2008ZM87.9996 70.6008H136.1C135.8 70.2008 135.5 69.8008 135.3 69.4008H88.5996C88.3996 69.7008 88.2996 70.1008 88.0996 70.5008C88.0996 70.5008 88.0996 70.5008 87.9996 70.6008C88.0996 70.6008 88.0996 70.5008 87.9996 70.6008ZM86.1996 75.0008H139.2C138.9 74.6008 138.7 74.2008 138.4 73.8008H86.6996C86.5996 74.1008 86.4996 74.4008 86.3996 74.6008C86.2996 74.7008 86.1996 74.9008 86.1996 75.0008ZM84.5996 79.4008H142C141.8 79.1008 141.7 78.9008 141.5 78.6008C141.4 78.5008 141.3 78.3008 141.3 78.2008H84.9996C84.8996 78.5008 84.7996 79.0008 84.5996 79.4008ZM83.2996 83.7008H144.7C144.7 83.7008 144.7 83.6008 144.6 83.6008C144.4 83.3008 144.2 82.9008 144 82.5008H83.5996C83.4996 82.9008 83.3996 83.3008 83.2996 83.7008ZM82.0996 88.1008H146.7C146.7 87.9008 146.6 87.8008 146.5 87.6008V87.5008C146.4 87.3008 146.4 87.1008 146.3 86.9008H82.3996C82.2996 87.2008 82.1996 87.5008 82.1996 87.8008C82.0996 88.0008 82.0996 88.0008 82.0996 88.1008ZM80.9996 92.5008H147.4C147.4 92.4008 147.4 92.4008 147.4 92.3008C147.4 92.0008 147.4 91.8008 147.3 91.5008C147.3 91.4008 147.3 91.4008 147.3 91.3008H81.2996C81.1996 91.7008 81.0996 92.1008 80.9996 92.5008ZM80.0996 96.9008H147.1C147.2 96.5008 147.2 96.1008 147.3 95.7008H80.3996C80.2996 96.1008 80.1996 96.5008 80.0996 96.9008ZM79.1996 101.301H146.1C146.1 101.301 146.1 101.301 146.1 101.201C146.2 101.001 146.2 100.901 146.3 100.701C146.4 100.501 146.4 100.301 146.5 100.101H79.4996C79.3996 100.501 79.2996 100.901 79.1996 101.301ZM78.4996 105.701H144.6C144.7 105.501 144.8 105.301 144.8 105.101C144.9 104.901 145 104.701 145 104.501H78.6996C78.5996 104.901 78.4996 105.301 78.4996 105.701ZM77.6996 110.101H142.9L142.8 109.401C142.8 109.401 142.9 109.201 143.1 108.901H77.8996C77.8996 109.001 77.8996 109.101 77.7996 109.201C77.7996 109.501 77.7996 109.801 77.6996 110.101ZM77.0996 114.401H143.6L143.4 113.201H77.1996C77.1996 113.601 77.0996 114.001 77.0996 114.401ZM80.8996 117.601C81.5996 118.001 82.1996 118.401 82.8996 118.801H141.2C141.9 118.401 142.6 118.001 143.2 117.601H80.8996ZM89.3996 122.001C90.3996 122.401 91.4996 122.801 92.5996 123.201H131.7C132.8 122.801 133.8 122.401 134.8 122.001H89.3996ZM108.2 126.401C109.5 126.501 110.8 126.501 112.1 126.501C113.4 126.501 114.7 126.501 116 126.401H108.2Z" fill="black"/>
<path d="M129.2 105.801C125.6 106.201 122.1 106.701 118.6 107.601C116.9 108.101 115.2 108.601 113.5 109.201C112.7 109.501 111.8 109.701 111 110.001C110.1 110.301 109.2 110.501 108.3 110.501C108.2 110.501 108.2 110.601 108.3 110.601C109.2 110.601 110 110.601 110.9 110.501C111.7 110.401 112.6 110.201 113.4 110.001C115.2 109.601 116.9 109.001 118.6 108.601C122.1 107.701 125.7 106.701 129.3 106.001C129.4 106.001 129.4 105.801 129.2 105.801Z" fill="#263238"/>
<path d="M138.099 108.901C135.199 108.601 132.199 108.501 129.199 108.601C127.699 108.601 126.199 108.701 124.799 108.901C124.099 109.001 123.399 109.101 122.699 109.201C121.899 109.301 121.199 109.501 120.399 109.601C120.299 109.601 120.299 109.701 120.399 109.701C121.099 109.601 121.899 109.701 122.599 109.701C123.299 109.701 124.099 109.601 124.799 109.601C126.299 109.601 127.799 109.501 129.199 109.501C132.199 109.401 135.099 109.301 138.099 109.301C138.199 109.101 138.199 108.901 138.099 108.901Z" fill="#263238"/>
<path d="M94.7003 55.5993C70.7003 73.9993 45.8003 105.199 45.4003 123.199C45.0003 140.999 55.0003 139.199 56.7003 138.699C74.5003 133.199 96.0003 83.7993 103.9 63.6993C111.8 43.6993 100.7 50.9993 94.7003 55.5993Z" fill="#DD6A57"/>
<path d="M56.3008 91.3998L84.1008 107.2C84.1008 107.2 102.101 75.2998 106.401 60.3998C110.701 45.4998 104.701 45.7998 91.2008 57.1998C77.8008 68.5998 56.3008 91.3998 56.3008 91.3998Z" fill="#9610FF"/>
<path d="M62.101 87.2C72.801 94.7 83.201 99.7 85.301 100.9C85.401 101 85.501 100.8 85.401 100.7C83.301 99.6 71.901 92.2 62.201 87C62.101 87 62.001 87.2 62.101 87.2Z" fill="#263238"/>
<path d="M82.301 106.099C82.501 106.099 83.701 106.699 84.001 106.799C86.701 101.499 86.201 102.699 88.901 97.3994C90.201 94.7994 91.601 92.1994 92.901 89.5994C94.301 86.8994 95.501 84.0994 97.001 81.4994C97.001 81.3994 97.201 81.4994 97.101 81.5994C96.201 84.1994 95.001 86.5994 93.901 89.0994C94.201 88.6994 94.401 88.2994 94.701 87.9994C95.301 87.1994 95.901 86.2994 96.501 85.4994C96.601 85.3994 96.801 85.4994 96.701 85.5994C96.201 86.3994 95.701 87.2994 95.301 88.1994C94.801 89.0994 94.301 89.8994 93.801 90.6994C93.301 91.4994 92.801 92.2994 92.201 92.9994C92.101 93.0994 92.101 93.1994 92.001 93.2994C91.301 94.7994 90.601 96.3994 89.801 97.8994C87.101 103.199 84.401 107.399 84.301 107.399C83.901 107.299 82.401 106.299 82.301 106.199C82.101 106.199 82.201 106.099 82.301 106.099Z" fill="#263238"/>
<path d="M165.2 139.601C157 138.401 152.3 123.101 143.1 98.7005C141.5 94.4005 162.8 69.9005 165.7 73.9005C169.3 78.9005 179 106.401 180 113.901C181.8 128.501 174.8 141.001 165.2 139.601Z" fill="#DD6A57"/>
<path d="M152.5 123.301C151.5 121.301 150.5 119.301 149.6 117.301C148.7 115.301 147.9 113.301 147 111.201C146.2 109.101 145.4 107.101 144.7 105.001C144 102.901 143.3 100.801 143 98.6006C143.3 99.7006 143.7 100.701 144.2 101.701C144.6 102.701 145 103.701 145.4 104.801C146.2 106.801 147.1 108.901 147.9 110.901C148.7 113.001 149.5 115.001 150.2 117.101C151.1 119.101 151.8 121.201 152.5 123.301Z" fill="#263238"/>
<path d="M172.4 91.5006C171.2 83.1006 168.9 71.5006 165.9 69.0006C162.8 66.4006 151.4 57.9006 148.1 56.7006C144.8 55.6006 130.1 50.0006 127.4 51.5006C125.2 52.7006 127.8 58.4006 134.8 61.1006C140.9 63.5006 144.1 65.7006 145.9 66.5006C147.7 67.3006 152 73.1006 150.8 75.6006C150.1 77.1006 145.7 78.9006 143 77.6006C140.3 76.4006 139.6 70.9006 136.5 68.4006C133.4 65.9006 127.9 66.2006 127.5 67.6006C127.2 69.1006 129 69.8006 131.8 74.8006C133.6 78.1006 133.7 85.9006 137.8 91.5006C139.9 94.3006 143.5 101.801 143.5 101.801L172.4 91.5006Z" fill="#DD6A57"/>
<path d="M133.5 66.2004C132.5 66.0004 131.5 65.7004 130.8 65.0004C130.5 64.7004 130.3 64.3004 130.2 63.9004C130.2 63.7004 130.1 63.4004 130.2 63.2004C130.2 63.0004 130.3 62.7004 130.5 62.5004C130.6 62.5004 130.5 62.4004 130.4 62.4004C130.3 62.5004 130.2 62.6004 130.1 62.7004C130 62.8004 130 62.9004 129.9 63.0004C129.8 63.2004 129.8 63.4004 129.8 63.7004C129.8 64.2004 130 64.7004 130.3 65.1004C131.1 66.1004 132.3 66.4004 133.5 66.2004Z" fill="#263238"/>
<path d="M165.9 69C163.2 64.8 156.4 57.3 149.7 54.7C145.1 52.9 129.5 60.6 129.9 63.6C130.4 66.6 133 66.6 137 66.1C138.4 65.9 146.1 63.2 147.4 64.8C149.3 67.1 151.6 75 151.6 75L165.9 69Z" fill="#DD6A57"/>
<path d="M130.3 62.3996C132.2 59.1996 136.5 57.4996 140.7 56.0996C140.8 56.0996 140.8 56.1996 140.7 56.1996C139.7 56.5996 132.8 59.6996 130.3 62.3996C130.3 62.4996 130.2 62.3996 130.3 62.3996Z" fill="#263238"/>
<path d="M165.9 69.0004C163.2 64.8004 156.4 57.3004 149.7 54.7004C145.1 52.9004 132.7 62.7004 133.2 65.7004C133.7 68.7004 137.5 68.9004 141.8 67.5004C143.2 67.0004 147.8 63.8004 149.1 65.4004C151 67.7004 155.5 73.4004 155.5 73.4004L165.9 69.0004Z" fill="#DD6A57"/>
<path d="M152.8 69.8005C152.4 69.1005 152.2 68.9005 151.8 68.3005C151.4 67.7005 150.9 67.0005 150.4 66.4005C150 65.9005 149.6 65.3005 149 64.9005C148.4 64.6005 147.8 64.5005 147.1 64.5005C145.6 64.6005 144.3 65.6005 143 66.3005C141.6 67.1005 138.7 68.4005 136.5 68.2005C135.9 68.1005 135.3 68.0005 134.7 67.7005C134.4 67.5005 133.9 67.2005 133.7 66.9005C132.7 65.3005 133.9 63.4005 135.2 62.1005C137.5 59.6005 140.6 57.9005 143.6 56.4005C144.3 56.0005 145.1 55.7005 145.8 55.4005C146.6 55.0005 147.5 54.6005 148.5 54.6005C150 54.6005 152.6 56.2005 153.4 56.6005C153.5 56.6005 153.5 56.5005 153.4 56.5005C152.5 55.9005 150.1 54.0005 147.6 54.1005C146.7 54.1005 145.8 54.6005 145 55.0005C144.1 55.4005 143.3 55.8005 142.4 56.2005C140.8 57.0005 139.2 57.9005 137.7 59.0005C136.3 60.0005 134.8 61.2005 133.8 62.7005C133 64.0005 132.7 65.8005 133.5 67.1005C134.2 68.2005 135.6 68.5005 136.3 68.6005C137 68.7005 137.6 68.7005 138.3 68.6005C139 68.5005 141.5 67.8005 142.6 67.4005C143.9 66.9005 145.2 66.0005 146.6 65.5005C147.3 65.3005 148 65.3005 148.6 65.6005C149.2 65.9005 149.7 66.5005 150.1 67.0005C151.1 68.1005 151.8 68.8005 152.6 70.0005C152.8 70.2005 153 70.1005 152.8 69.8005Z" fill="#263238"/>
<path d="M167.8 72.6003C166.8 70.6003 165.2 62.4003 163.6 59.9003C162 57.4003 154.8 48.7003 151.4 49.1003C147.2 49.6003 151.6 57.2003 153.8 60.4003C156 63.5003 155.6 68.9003 155.6 68.9003L167.8 72.6003Z" fill="#DD6A57"/>
<path d="M150.8 55.2005C151.6 56.2005 152.3 57.3005 153 58.4005C153.6 59.4005 154.4 60.4005 154.9 61.5005C155.4 62.6005 155.6 63.8005 155.7 65.0005C155.8 65.6005 155.8 66.2005 155.8 66.8005C155.8 67.4005 155.7 68.1004 155.8 68.7004C155.8 68.8004 155.7 68.8004 155.7 68.7004C155.7 67.5004 155.4 66.3004 155.2 65.2004C155 64.0004 154.6 62.8005 154.1 61.7005C153.1 59.5005 151.7 57.5005 150.7 55.3005C150.6 55.1005 150.7 55.1005 150.8 55.2005Z" fill="#263238"/>
<path d="M155.7 69.7002C155.9 71.7002 155.3 73.8002 154.5 75.6002C154.1 76.5002 153.7 77.4002 153.1 78.3002C152.6 79.2002 152 80.0002 151.3 80.8002C150.1 82.4002 149 84.0002 148.2 85.8002C147.4 87.6002 147 89.5002 146.7 91.5002C146.6 89.5002 146.9 87.4002 147.5 85.5002C148.2 83.6002 149.3 81.8002 150.5 80.2002C151.8 78.6002 152.8 77.0002 153.7 75.2002C154.1 74.3002 154.5 73.4002 154.9 72.5002C155.3 71.7002 155.6 70.7002 155.7 69.7002Z" fill="#263238"/>
<path d="M123 62.3003L111.4 96.9003C110.9 97.9003 111.4 98.8003 112.4 98.9003L130.6 100.3C131.6 100.4 132.8 99.6003 133.3 98.6003L144.9 64.0003C145.4 63.0003 144.9 62.1003 143.9 62.0003L125.7 60.6003C124.6 60.5003 123.4 61.3003 123 62.3003Z" fill="#37474F"/>
<path d="M125.1 62.4002L113.5 97.0002C113 98.0002 113.5 98.9002 114.5 99.0002L132.7 100.4C133.7 100.5 134.9 99.7002 135.4 98.7002L147 64.1002C147.5 63.1002 147 62.2002 146 62.1002L127.8 60.7002C126.8 60.7002 125.6 61.4002 125.1 62.4002Z" fill="#455A64"/>
<path d="M130.07 64.4739C130.157 63.5946 129.515 62.8112 128.636 62.7242C127.756 62.6372 126.973 63.2795 126.886 64.1588C126.799 65.0382 127.441 65.8215 128.321 65.9085C129.2 65.9955 129.983 65.3533 130.07 64.4739Z" fill="#263238"/>
<path d="M52.9999 138.901C60.8999 140.101 70.8999 134.001 96.8999 115.501C100.5 112.901 89.1999 82.8007 85.2999 85.3007C80.2999 88.5007 61.5999 102.001 60.2999 103.101C49.6999 112.901 47.5999 138.101 52.9999 138.901Z" fill="#DD6A57"/>
<path d="M75.8994 94.3005C75.8994 94.3005 83.2994 84.1004 88.8994 80.0004C96.3994 74.4004 105.099 72.7004 108.799 72.2004C116.499 71.2004 135.899 74.0004 136.099 79.7004C136.299 84.9004 116.599 81.0004 116.599 81.0004C116.599 81.0004 137.299 81.6004 136.399 87.9004C135.399 94.2004 112.799 88.4004 112.799 88.4004C112.799 88.4004 134.099 89.5005 132.099 95.8005C130.599 100.6 109.799 96.5004 109.799 96.5004C109.799 96.5004 128.099 97.6004 126.699 102.6C125.199 108.1 105.799 105.5 105.799 105.5C100.199 117.6 92.5994 121 86.8994 122.8C85.4994 123.3 75.8994 94.3005 75.8994 94.3005Z" fill="#DD6A57"/>
<path d="M109.399 80.3008C111.799 80.3008 114.299 80.3008 116.699 80.5008C119.099 80.7008 121.599 81.0008 123.999 81.4008C129.899 82.4008 133.399 84.0008 133.199 84.0008C127.799 82.3008 119.099 81.4008 116.699 81.2008C114.199 80.9008 111.799 80.6008 109.399 80.3008C109.299 80.4008 109.299 80.3008 109.399 80.3008Z" fill="#263238"/>
<path d="M108.5 89.001C111.6 89.101 114.7 89.101 117.8 89.401C120.9 89.701 123.8 90.201 126.9 90.601C127.1 90.601 127 90.801 126.8 90.701C123.7 90.401 120.8 90.301 117.8 90.001C114.7 89.701 111.6 89.301 108.5 89.001Z" fill="#263238"/>
<path d="M106.4 96.401C111.2 96.301 115.9 97.101 120.6 98.101C120.8 98.101 120.7 98.301 120.5 98.201C115.8 97.601 112.1 97.001 106.5 96.601C106.3 96.601 106.3 96.401 106.4 96.401Z" fill="#263238"/>
<path d="M67.4002 97.7998L64.6002 100.2C63.7002 101 62.7002 101.8 61.8002 102.6C60.9002 103.4 60.0002 104.2 59.1002 105.1C58.2002 106 57.5002 106.8 56.9002 107.9C55.6002 109.9 54.6002 112.2 53.6002 114.4C53.1002 115.5 52.7002 116.7 52.3002 117.8C51.9002 118.9 51.5002 120.1 51.2002 121.3C51.4002 118.8 52.1002 116.4 52.9002 114.1C53.7002 111.8 54.7002 109.5 56.1002 107.4C56.8002 106.3 57.6002 105.3 58.5002 104.5C59.4002 103.6 60.3002 102.8 61.3002 102.1C63.3002 100.5 65.3002 99.0998 67.4002 97.7998Z" fill="#263238"/>
<path d="M104.2 52.0998C104.4 53.4998 109.9 62.8998 117.3 62.4998C121.6 62.2998 118.8 53.5998 118.8 53.5998L122.7 41.8998L108.6 30.8998C108.5 30.7998 104.1 51.4998 104.2 52.0998Z" fill="#DD6A57"/>
<path d="M106.9 38.5002C109.4 47.2002 115.9 51.3002 119 52.9002L122.7 41.8002L108.6 30.7002C108.5 30.8002 107.8 34.3002 106.9 38.5002Z" fill="#263238"/>
<path d="M139.7 25.4997C139.9 45.7997 127.8 48.1997 123.4 48.1997C119.4 48.1997 105.9 47.7997 103.6 27.6997C101.3 7.59971 110.7 1.09971 119.7 0.49971C128.8 -0.10029 139.5 5.19971 139.7 25.4997Z" fill="#DD6A57"/>
<path d="M134.699 23.9002C134.199 23.8002 133.799 23.6002 133.399 23.5002C132.899 23.3002 132.499 23.3002 132.099 22.8002C131.899 22.6002 131.999 22.1002 132.199 21.9002C132.699 21.4002 133.399 21.5002 133.999 21.6002C134.699 21.8002 135.199 22.1002 135.599 22.7002C135.899 23.3002 135.299 24.0002 134.699 23.9002Z" fill="#263238"/>
<path d="M120.8 23.4008C121.3 23.4008 121.7 23.3008 122.2 23.2008C122.7 23.1008 123.2 23.1008 123.6 22.8008C123.8 22.6008 123.8 22.2008 123.7 21.9008C123.3 21.3008 122.6 21.3008 122 21.3008C121.3 21.4008 120.8 21.6008 120.3 22.1008C119.8 22.6008 120.2 23.4008 120.8 23.4008Z" fill="#263238"/>
<path d="M123.3 28.0007C123.3 27.9007 123.2 28.1007 123.2 28.1007C123.2 29.5007 122.9 31.1007 121.6 31.4007V31.5007C123.1 31.4007 123.4 29.3007 123.3 28.0007Z" fill="#263238"/>
<path d="M122.1 26.501C119.9 26.201 119.4 30.601 121.5 30.901C123.5 31.201 124 26.701 122.1 26.501Z" fill="#263238"/>
<path d="M121.2 26.6007C120.8 26.8007 120.4 27.2007 119.9 27.2007C119.4 27.2007 119 26.7007 118.7 26.2007C118.7 26.1007 118.6 26.2007 118.6 26.2007C118.5 27.0007 118.7 28.0007 119.6 28.2007C120.4 28.4007 121.1 27.7007 121.4 26.9007C121.5 26.8007 121.4 26.5007 121.2 26.6007Z" fill="#263238"/>
<path d="M131.6 28.6999C131.6 28.5999 131.7 28.7999 131.7 28.7999C131.5 30.1999 131.5 31.7999 132.7 32.3999V32.4999C131.1 32.0999 131.2 29.8999 131.6 28.6999Z" fill="#263238"/>
<path d="M132.9 27.4001C135.1 27.5001 134.8 31.9001 132.7 31.8001C130.8 31.8001 131.1 27.3001 132.9 27.4001Z" fill="#263238"/>
<path d="M133.899 27.7005C134.199 28.0005 134.499 28.4005 134.999 28.5005C135.499 28.6005 135.899 28.1005 136.199 27.7005C136.199 27.7005 136.299 27.7005 136.299 27.8005C136.299 28.7005 135.899 29.5005 135.099 29.6005C134.299 29.7005 133.899 28.9005 133.699 28.1005C133.599 27.9005 133.699 27.6005 133.899 27.7005Z" fill="#263238"/>
<path d="M123.099 39.0004C123.399 39.4004 123.599 39.9004 124.099 40.0004C124.599 40.1004 125.199 40.0004 125.599 39.9004C125.599 39.9004 125.699 39.9004 125.599 40.0004C125.199 40.5004 124.399 40.7004 123.799 40.5004C123.199 40.3004 122.999 39.7004 122.899 39.1004C122.899 39.0004 122.999 38.9004 123.099 39.0004Z" fill="#263238"/>
<path d="M129.299 34.6004C129.299 34.6004 129.399 36.7004 129.299 37.6004C129.299 37.7004 129.099 37.7004 128.699 37.7004C126.999 37.8004 125.299 37.1004 124.399 35.6004C124.299 35.5004 124.499 35.4004 124.599 35.5004C125.799 36.6004 127.199 36.9004 128.699 37.1004C128.799 36.8004 128.399 33.5004 128.599 33.5004C129.099 33.5004 130.099 34.0004 130.799 34.2004C130.699 29.9004 129.999 25.6004 129.999 21.3004C129.999 21.1004 130.199 21.1004 130.299 21.3004C131.399 25.7004 131.599 30.7004 131.799 35.2004C131.599 35.7004 129.599 34.8004 129.299 34.6004Z" fill="#263238"/>
<path d="M128.1 37.1008C128.1 37.1008 127.2 38.2008 126 38.5008C125.6 38.6008 125.1 38.7008 124.6 38.5008C123.6 38.2008 123.7 37.3008 123.9 36.5008C124.1 35.9008 124.4 35.3008 124.4 35.3008C124.4 35.3008 125.8 36.9008 128.1 37.1008Z" fill="#263238"/>
<path d="M126 38.6006C125.6 38.7006 125.1 38.8006 124.6 38.6006C123.6 38.3006 123.7 37.4006 123.9 36.6006C125 36.8006 126 37.6006 126 38.6006Z" fill="#FF9ABB"/>
<path d="M105.2 28.3999C108.9 29.2999 110.8 22.8999 110.8 22.8999C110.8 22.8999 127 23.4999 129.8 10.6999C129.8 10.6999 131.6 19.6999 139.6 22.5999C139.6 22.5999 140.7 6.29994 129.8 2.19994C129.8 2.19994 116.4 -4.50006 107.2 5.59994C98 15.7999 102.7 27.7999 105.2 28.3999Z" fill="#263238"/>
<path d="M129.8 10.5C129.6 12.5 128.8 14.4 127.8 16.2C126.8 17.9 125.4 19.5 123.7 20.7C123.3 21 122.8 21.2 122.4 21.5L121.7 21.9C121.5 22 121.2 22.1 121 22.2C120.5 22.4 120.1 22.6 119.6 22.8C119.1 22.9 118.6 23.1 118.1 23.2C117.9 23.3 117.6 23.3 117.4 23.4L116.6 23.5L115.1 23.7C114.1 23.8 113.1 23.8 112.1 23.7C113.1 23.5 114.1 23.4 115 23.2L116.4 22.9L117.1 22.7C117.3 22.6 117.6 22.5 117.8 22.5C118.3 22.3 118.7 22.2 119.2 22C119.6 21.8 120.1 21.6 120.5 21.4L121.2 21.1L121.8 20.7C122.2 20.4 122.6 20.2 123 19.9C124.6 18.8 125.9 17.3 127.1 15.8C127.7 15 128.2 14.2 128.6 13.3C129.2 12.4 129.5 11.5 129.8 10.5Z" fill="#263238"/>
<path d="M107 27.7997C107 27.7997 103.1 21.1997 100.1 22.4997C97.0998 23.8997 99.6998 33.1997 103 34.7997C106.3 36.2997 107.7 33.2997 107.7 33.2997L107 27.7997Z" fill="#DD6A57"/>
<path d="M101 25.1992C100.9 25.1992 100.9 25.2992 101 25.1992C103.3 26.3992 104.3 28.6992 105 30.9992C104.4 30.0992 103.4 29.4992 102.2 30.2992C102.1 30.2992 102.2 30.3992 102.3 30.3992C103.3 30.2992 104 30.4992 104.6 31.2992C105 31.8992 105.3 32.5992 105.6 33.2992C105.7 33.4992 106.1 33.3992 106 33.1992C106 33.1992 106 33.1992 106 33.0992C106.2 30.0992 104.2 25.7992 101 25.1992Z" fill="#263238"/>
<path d="M90.1996 73.7999C90.1996 73.7999 100.4 65.3999 114.4 74.4999C128.4 83.4999 125.7 120.8 123.3 126.4C123.3 126.4 96.2996 138 73.0996 126.8C73.0996 126.8 86.9996 99.8999 85.4996 86.7999C84.5996 79.1999 90.1996 73.7999 90.1996 73.7999Z" fill="#263238"/>
<path d="M83.9994 96.8998C83.8994 97.0998 83.7994 97.3998 83.6994 97.5998C82.4994 100.7 81.0994 103.7 79.2994 106.6C77.6994 109.3 75.7994 112 73.4994 114.1C73.3994 114.2 73.2994 114.1 73.3994 114C75.6994 111.7 77.3994 108.8 78.7994 106C80.1994 103.2 81.4994 100.3 82.5994 97.2998C84.8994 91.2998 86.4994 84.8998 87.1994 78.4998C87.1994 78.3998 87.3994 78.3998 87.3994 78.4998C87.3994 79.3998 87.2994 80.2998 87.1994 81.1998C87.2994 81.1998 87.3994 81.1998 87.2994 81.2998C86.7994 87.2998 85.9994 93.1998 84.2994 98.9998C82.5994 104.7 79.9994 110 76.7994 115.1C74.9994 117.9 73.0994 120.6 70.9994 123.2C70.9994 123.2 70.8994 123.2 70.8994 123.1C77.0994 115.3 81.1994 106.3 83.9994 96.8998Z" fill="#263238"/>
<path d="M111.499 72.9999C124.299 81.4999 127.499 97.3999 126.899 111.4C126.699 115.7 126.199 120 125.199 124.2C125.199 124.3 125.099 124.3 125.099 124.2C126.299 116.8 126.499 109.4 125.499 101.9C124.599 94.9999 122.999 87.7999 119.199 81.6999C117.199 78.3999 114.599 75.3999 111.299 73.1999C111.199 73.0999 111.299 72.8999 111.499 72.9999Z" fill="#263238"/>
<path d="M105 136.1C95.7001 159.9 66.2001 187.6 56.1001 188.5C44.4001 189.6 20.2001 176.1 8.50007 159.9C5.70007 156 30.5001 137.7 34.7001 140.6C43.3001 146.5 53.5001 154.5 54.9001 154.6C57.7001 154.8 76.1001 140.4 90.7001 130.1C109 117.1 108.7 126.6 105 136.1Z" fill="#EB9481"/>
<path d="M12.0998 164.1C12.0998 164.1 1.3998 153 0.199805 142.6C-0.600195 135.4 0.199806 116.3 17.4998 103.3C21.5998 100.2 29.6998 98.7999 24.7998 106.2C21.2998 111.5 17.4998 113.8 16.0998 117.3C16.0998 117.3 26.5998 116.7 29.4998 120.9C30.7998 122.8 34.1998 128.1 36.2998 132.5C36.2998 132.5 35.3998 133.2 34.1998 134C34.1998 134 36.5998 138.2 34.8998 145.4L12.0998 164.1Z" fill="#EB9481"/>
<path d="M37.7003 95.8998L49.6003 133.7C50.1003 134.8 49.6003 135.7 48.5003 135.8L28.7003 137C27.6003 137.1 26.3003 136.2 25.8003 135.1L13.9003 97.1998C13.4003 96.0998 13.9003 95.1998 15.0003 95.0998L34.8003 93.9998C35.9003 93.8998 37.2003 94.7998 37.7003 95.8998Z" fill="#A6A6A6"/>
<path d="M35.2999 95.9994L47.1999 133.799C47.6999 134.899 47.1999 135.799 46.0999 135.899L26.2999 136.999C25.1999 137.099 23.8999 136.199 23.3999 135.099L11.4999 97.3994C10.9999 96.2994 11.4999 95.3994 12.5999 95.2994L32.3999 94.0994C33.5999 93.9994 34.7999 94.8994 35.2999 95.9994Z" fill="#C7C7C7"/>
<path d="M31.8364 99.5946C32.7723 99.5193 33.4699 98.6995 33.3946 97.7637C33.3193 96.8278 32.4996 96.1301 31.5637 96.2054C30.6278 96.2808 29.9302 97.1005 30.0055 98.0364C30.0808 98.9722 30.9005 99.6699 31.8364 99.5946Z" fill="#263238"/>
<path d="M1.2002 132.3C3.4002 129.2 8.1002 122.7 13.8002 118.7C20.2002 114.3 33.6002 107.4 36.8002 112.1C39.2002 115.6 34.3002 118.6 34.3002 118.6C34.3002 118.6 40.5002 116.9 41.9002 120.5C43.2002 123.8 39.3002 125.9 39.3002 125.9C39.3002 125.9 43.2002 125.5 43.9002 128.9C44.7002 133 36.4002 133.1 33.6002 137.9C33.0002 139.2 1.2002 132.3 1.2002 132.3Z" fill="#EB9481"/>
<path d="M17.4004 126.201C19.9004 123.601 27.2004 119.201 34.2004 118.601C34.4004 118.601 34.5004 118.701 34.3004 118.701C26.8004 121.001 20.2004 124.601 17.4004 126.201Z" fill="#263238"/>
<path d="M22.1006 132.5C24.5006 130.5 32.2006 126.3 39.3006 125.9C39.5006 125.9 39.5006 126 39.4006 126C31.4006 128.1 24.9006 131 22.1006 132.5Z" fill="#263238"/>
<path d="M34.9998 136.399C34.9998 138.699 34.8998 140.899 34.6998 143.199C34.5998 144.299 34.3998 145.399 34.1998 146.499C33.9998 147.599 33.6998 148.699 33.2998 149.799C34.7998 147.999 35.3998 145.599 35.6998 143.299C35.7998 142.099 35.7998 140.999 35.6998 139.799C35.5998 138.599 35.3998 137.499 34.9998 136.399Z" fill="#263238"/>
<path d="M92.3996 160.6L74.0996 140.2C74.0996 140.2 88.5996 127.7 99.1996 123C109.7 118.3 111.2 125.1 106.6 135.3C102 145.6 92.3996 160.6 92.3996 160.6Z" fill="#9610FF"/>
<path opacity="0.1" d="M92.3996 160.6L74.0996 140.2C74.0996 140.2 88.5996 127.7 99.1996 123C109.7 118.3 111.2 125.1 106.6 135.3C102 145.6 92.3996 160.6 92.3996 160.6Z" fill="black"/>
<path opacity="0.1" d="M79 145.6L92.4 160.6C92.4 160.6 101.9 145.6 106.6 135.4C110.1 127.7 110.1 121.9 105.4 121.6L79 145.6Z" fill="black"/>
<path d="M79.3991 137.1C82.4991 140 90.5991 148.2 95.1991 154.2C95.1991 154.2 95.0991 154.4 95.0991 154.3C90.4991 149.9 81.9991 140.5 79.1991 137.3C79.0991 137.3 79.2991 137.1 79.3991 137.1Z" fill="#263238"/>
<path d="M147.6 190.9C137.3 199.6 124.1 204.8 109.5 204.8C97.2002 204.8 85.7002 201 76.2002 194.5C79.1002 179.8 87.6002 131.9 97.0002 122.4C100.8 118.6 107.9 118.8 112.1 120.2C115.4 121.3 120.9 123 132 144.7C137.3 154.9 143.5 175.6 147.6 190.9Z" fill="#9610FF"/>
<path d="M98.8994 133.799C103.399 134.299 110.199 126.799 112.499 120.999C112.699 120.599 111.599 116.799 110.599 111.999C109.999 109.099 109.399 105.899 109.099 102.899C108.999 102.299 90.8994 109.599 90.8994 109.599C90.8994 109.599 93.3994 115.599 93.9994 120.799C93.9994 121.199 93.9994 121.599 93.9994 121.999C93.9994 122.099 93.9994 122.099 93.9994 122.199C93.8994 124.699 94.4994 133.299 98.8994 133.799Z" fill="#EB9481"/>
<path d="M107.899 103.199C107.599 108.299 105.899 120.899 95.8994 122.199C95.1994 122.299 94.5994 122.299 93.9994 122.299C93.9994 122.199 93.9994 122.199 93.9994 122.099C93.9994 121.699 93.9994 121.299 93.9994 120.899C93.3994 115.699 90.8994 109.699 90.8994 109.699C90.8994 109.699 103.999 104.399 107.899 103.199Z" fill="#263238"/>
<path d="M111.4 82.7998C113.4 89.4998 109.8 108.7 105 113C98.0998 119.2 86.7998 119.7 81.5998 111.4C76.4998 103.4 81.6998 78.3998 86.9998 74.4998C94.8998 68.7998 108.5 72.9998 111.4 82.7998Z" fill="#EB9481"/>
<path d="M96.5004 90.3999C95.9004 90.2999 95.4004 89.9999 94.9004 89.7999C94.3004 89.5999 93.7004 89.3999 93.3004 88.8999C93.1004 88.5999 93.2004 88.0999 93.4004 87.7999C94.0004 87.1999 94.9004 87.2999 95.7004 87.5999C96.5004 87.8999 97.1004 88.2999 97.6004 88.9999C98.0004 89.7999 97.2004 90.5999 96.5004 90.3999Z" fill="#263238"/>
<path d="M82.9002 88.2002C83.5002 88.2002 84.1002 88.1002 84.6002 88.1002C85.3002 88.0002 85.8002 88.1002 86.4002 87.6002C86.7002 87.4002 86.7002 86.8002 86.5002 86.5002C86.0002 85.8002 85.2002 85.7002 84.4002 85.7002C83.5002 85.7002 82.9002 86.0002 82.2002 86.6002C81.6002 87.2002 82.2002 88.2002 82.9002 88.2002Z" fill="#263238"/>
<path d="M92.5004 106.9C92.1004 107.1 91.7004 107.5 91.3004 107.5C90.8004 107.5 90.3004 107.2 90.0004 106.9C90.0004 106.9 89.9004 106.9 89.9004 107C90.1004 107.6 90.8004 108 91.4004 108C92.0004 108 92.4004 107.5 92.6004 107L92.5004 106.9Z" fill="#263238"/>
<path d="M91.8005 102.8C90.9005 103.8 89.7005 104.2 88.5005 104.2C88.0005 104.2 87.4005 104.1 86.9005 104C86.8005 104 86.7005 103.9 86.6005 103.9C86.5005 103.9 86.4005 103.8 86.3005 103.8C86.2005 103.7 86.1005 103.6 86.1005 103.5V103.4V103.3C86.3005 102.3 86.6005 100.8 86.6005 100.8C86.2005 100.9 84.2005 101.4 84.3005 100.9C85.3005 96.6001 86.5005 91.9001 88.5005 87.8001C88.6005 87.7001 88.8005 87.7001 88.7005 87.9001C88.0005 92.0001 86.4005 96.0001 85.5005 100.1C86.1005 100 87.2005 99.7001 87.7005 99.8001C87.8005 99.9001 86.9005 102.7 86.9005 103.1C88.5005 103.6 89.9005 103.3 91.7005 102.5C91.8005 102.6 91.9005 102.7 91.8005 102.8Z" fill="#263238"/>
<path d="M87.6006 103.6C87.6006 103.6 88.3006 105 89.4006 105.6C89.8006 105.8 90.3006 106 90.8006 106C91.9006 105.9 92.1006 105 92.0006 104.1C92.0006 103.4 91.8006 102.8 91.8006 102.8C91.8006 102.8 90.0006 103.9 87.6006 103.6Z" fill="#263238"/>
<path d="M89.4004 105.6C89.8004 105.8 90.3004 106 90.8004 106C91.9004 105.9 92.1004 105 92.0004 104.1C90.9004 104 89.7004 104.6 89.4004 105.6Z" fill="#FF98B9"/>
<path d="M82.6002 92.6006C82.7002 92.3006 82.9002 92.0006 83.2002 91.8006C83.5002 91.6006 83.9002 91.6006 84.3002 91.6006C84.7002 91.7006 85.0002 92.0006 85.1002 92.4006C85.2002 92.7006 85.2002 93.1006 85.2002 93.4006C85.2002 93.6006 85.1002 93.8006 85.1002 94.0006C85.0002 94.4006 84.8002 94.8006 84.5002 95.1006C84.6002 94.8006 84.7002 94.5006 84.7002 94.2006C84.7002 93.9006 84.7002 93.7006 84.7002 93.4006C84.7002 92.8006 84.5002 92.3006 84.1002 92.3006C83.7002 92.2006 83.3002 92.4006 83.0002 92.9006C82.7002 93.3006 82.5002 93.9006 82.2002 94.4006C82.2002 93.7006 82.3002 93.1006 82.6002 92.6006Z" fill="#263238"/>
<path d="M92.5998 94.6C92.6998 94.3 92.8998 94 93.0998 93.8C93.3998 93.6 93.7998 93.5 94.0998 93.5C94.4998 93.5 94.7998 93.8 94.9998 94.1C95.1998 94.4 95.1998 94.7 95.1998 95.1C95.1998 95.3 95.1998 95.5 95.1998 95.7C95.0998 96.1 94.9998 96.5 94.7998 96.8C94.8998 96.5 94.8998 96.2 94.8998 95.9C94.8998 95.6 94.8998 95.4 94.7998 95.1C94.6998 94.6 94.4998 94.1 93.9998 94C93.5998 93.9 93.1998 94.2 92.8998 94.7C92.6998 95.2 92.4998 95.7 92.2998 96.3C92.2998 95.8 92.3998 95.2 92.5998 94.6Z" fill="#263238"/>
<path d="M107.6 100.8C106.6 99.7998 105.6 93.2998 105.6 93.2998C105.6 93.2998 93.7 87.7998 92.9 76.6998C92.9 76.6998 87.2 83.5998 82 84.7998C82 84.7998 82.8 72.8998 93.4 71.9998C93.4 71.9998 103.4 68.2998 111.5 78.4998C119.7 88.6998 110.8 101.2 110.8 101.2L107.6 100.8Z" fill="#263238"/>
<path d="M93.3005 74.5998C92.7005 76.2998 92.9005 78.3998 93.4005 80.0998C93.8005 81.8998 94.5005 83.5998 95.4005 85.2998C96.3005 86.8998 97.4005 88.4998 98.8005 89.7998C100.4 91.1999 102.4 92.1998 104.4 93.0998C104.5 93.0998 104.4 93.1998 104.4 93.1998C102.3 92.2998 100.3 91.3998 98.5005 90.0998C97.0005 88.8998 95.7005 87.2998 94.7005 85.5998C93.6005 83.8998 92.8005 82.0998 92.5005 80.0998C92.2005 78.1998 92.6005 76.3998 93.2005 74.5998C93.1005 74.3998 93.3005 74.4998 93.3005 74.5998Z" fill="#263238"/>
<path d="M106.199 98.2997C106.199 98.2997 110.699 92.1997 113.499 93.7997C116.299 95.3997 112.799 104.4 109.399 105.5C106.099 106.6 104.899 103.6 104.899 103.6L106.199 98.2997Z" fill="#EB9481"/>
<path d="M112.399 96.2998C112.499 96.2998 112.499 96.3998 112.399 96.2998C110.099 97.2998 108.799 99.3998 107.899 101.6C108.599 100.8 109.599 100.3 110.699 101.2C110.799 101.2 110.699 101.3 110.599 101.3C109.699 101.1 108.999 101.2 108.299 102C107.799 102.5 107.499 103.2 107.199 103.8C107.099 104 106.699 103.9 106.799 103.6C106.799 103.6 106.799 103.6 106.799 103.5C106.799 100.6 109.199 96.5998 112.399 96.2998Z" fill="#263238"/>
<path d="M90.2996 109.4C90.2996 109.4 91.3996 110.1 92.8996 109.3C92.8996 109.3 93.2996 110.4 92.5996 111.6L92.4996 110.8C92.4996 110.8 92.2996 112.4 91.5996 113.3C91.5996 113.3 90.8996 112.5 90.8996 111.7L90.9996 112.7C90.8996 112.6 89.7996 111.3 90.2996 109.4Z" fill="#263238"/>
<path d="M121.601 142C116.501 173 103.901 193.1 98.0007 194C82.1007 196.6 55.3007 170.7 47.3007 164.6C44.1007 162.1 70.5007 140 73.6007 143.1C81.0007 150.2 90.9007 161.4 91.4007 161.5C92.4007 161.7 96.2007 154.7 108.901 134.8C119.101 118.7 123.701 129.4 121.601 142Z" fill="#EB9481"/>
<path d="M32.6002 113.2C30.4002 116.5 39.1002 121.3 39.1002 121.3C39.1002 121.3 36.3002 121.2 34.4002 123C32.2002 125.1 34.4002 129.5 34.4002 129.5C34.4002 129.5 31.6002 130 29.7002 132.1C27.8002 134.3 29.4002 139.1 29.4002 139.1C29.4002 139.1 27.1002 141 26.7002 144C25.7002 152.5 44.2002 164.6 50.1002 166.9L74.5002 145C74.5002 145 65.5002 124.9 58.2002 119.7C54.2002 116.8 36.0002 108.1 32.6002 113.2Z" fill="#EB9481"/>
<path d="M39.2998 121.3C44.4998 122.9 49.2998 125.7 53.9998 128.5C54.0998 128.6 53.9998 128.7 53.8998 128.7C49.2998 125.9 43.8998 124.2 39.1998 121.6C38.9998 121.4 39.0998 121.2 39.2998 121.3Z" fill="#263238"/>
<path d="M34.7998 129.2C35.9998 129.6 36.9998 130.4 37.9998 131C39.0998 131.7 40.1998 132.5 41.1998 133.2C43.2998 134.7 45.3998 136.3 47.4998 138C47.5998 138.1 47.4998 138.2 47.3998 138.2C45.2998 136.7 43.0998 135.2 40.8998 133.7C39.7998 133 38.6998 132.3 37.5998 131.6C36.5998 130.9 35.3998 130.3 34.5998 129.5C34.4998 129.4 34.5998 129.2 34.7998 129.2Z" fill="#263238"/>
<path d="M29.6001 139.2C30.6001 139.5 31.6001 140.4 32.4001 141C33.4001 141.7 34.3001 142.4 35.3001 143.1C37.2001 144.5 39.2001 145.9 41.2001 147.3C41.3001 147.4 41.2001 147.5 41.1001 147.5C39.1001 146.1 37.0001 144.8 35.0001 143.4C34.0001 142.7 33.0001 142 32.0001 141.4C31.2001 140.7 30.1001 140.1 29.6001 139.2C29.6001 139.1 29.5001 139.2 29.6001 139.2Z" fill="#263238"/>
<path d="M68.6003 181.8C65.4003 179.5 62.2003 177.2 59.1003 174.8C57.5003 173.6 56.0003 172.4 54.5003 171.1C53.0003 169.8 51.5003 168.6 50.1003 167.2L50.2003 167.3C47.2003 165.8 44.3003 164.2 41.4003 162.4C38.6003 160.6 35.9003 158.6 33.4003 156.4C30.9003 154.1 28.5003 151.6 27.2003 148.4C26.5003 146.8 26.3003 145 26.5003 143.2C26.8003 141.4 27.8003 139.8 29.4003 138.8L29.2003 139.4C28.8003 138.3 28.6003 137.2 28.5003 136.1C28.4003 135 28.5003 133.8 29.0003 132.7C29.3003 132.2 29.6003 131.7 30.0003 131.3C30.4003 130.9 30.9003 130.5 31.3003 130.2C32.3003 129.6 33.4003 129.2 34.6003 129.2L34.3003 129.8C33.7003 128.9 33.3003 127.9 33.1003 126.8C32.9003 125.7 33.0003 124.5 33.6003 123.6C34.2003 122.7 35.2003 122 36.2003 121.6C37.2003 121.2 38.2003 121 39.3003 121L39.2003 121.5C38.0003 120.9 36.9003 120.2 35.9003 119.4C34.9003 118.6 33.8003 117.7 33.1003 116.6C32.7003 116.1 32.4003 115.4 32.3003 114.7C32.2003 114 32.5003 113.3 32.9003 112.8C33.8003 111.7 35.3003 111.6 36.6003 111.7C35.3003 111.7 33.9003 111.9 33.1003 112.9C32.7003 113.4 32.5003 114 32.6003 114.7C32.7003 115.3 33.0003 115.9 33.4003 116.4C34.2003 117.4 35.2003 118.3 36.2003 119C37.3003 119.7 38.4003 120.4 39.5003 121L40.4003 121.5L39.4003 121.6C38.4003 121.7 37.4003 121.9 36.5003 122.2C35.6003 122.6 34.8003 123.2 34.3003 124C33.8003 124.8 33.8003 125.8 34.0003 126.7C34.2003 127.6 34.6003 128.6 35.1003 129.4L35.5003 130H34.8003C33.8003 130.1 32.8003 130.4 32.0003 130.9C31.6003 131.2 31.2003 131.5 30.8003 131.8C30.4003 132.2 30.1003 132.6 30.0003 133C29.6003 133.9 29.5003 134.9 29.6003 135.9C29.7003 136.9 29.9003 138 30.3003 138.9L30.4003 139.3L30.0003 139.5C29.4003 139.8 28.8003 140.4 28.4003 141.1C28.0003 141.7 27.7003 142.5 27.6003 143.2C27.4003 144.7 27.6003 146.3 28.2003 147.8C29.4003 150.8 31.7003 153.3 34.1003 155.5C36.5003 157.7 39.2003 159.7 42.0003 161.5C44.8003 163.3 47.7003 165 50.6003 166.5H50.7003C53.5003 169.3 56.5003 171.8 59.5003 174.3C62.4003 176.9 65.5003 179.3 68.6003 181.8Z" fill="#263238"/>
<path d="M73.6006 143.1C74.6006 143.9 75.6006 144.8 76.5006 145.7C77.5006 146.6 78.4006 147.5 79.3006 148.5C80.2006 149.4 81.1006 150.4 82.0006 151.4C82.9006 152.4 83.7006 153.4 84.5006 154.4C83.5006 153.6 82.5006 152.7 81.6006 151.8C80.6006 150.9 79.7006 150 78.8006 149C77.9006 148 77.0006 147.1 76.1006 146.1C75.3006 145.1 74.4006 144.1 73.6006 143.1Z" fill="#263238"/>
<path d="M118.501 167.2L94.1006 154.7C94.1006 154.7 103.201 137.9 111.301 129.7C119.401 121.5 123.301 127.3 122.601 138.6C122.101 149.8 118.501 167.2 118.501 167.2Z" fill="#9610FF"/>
<path opacity="0.1" d="M118.501 167.2L94.1006 154.7C94.1006 154.7 103.201 137.9 111.301 129.7C119.401 121.5 123.301 127.3 122.601 138.6C122.101 149.8 118.501 167.2 118.501 167.2Z" fill="black"/>
<path d="M98.5008 149.9C102.401 151.5 113.001 156.2 119.401 160.2C119.401 160.2 119.401 160.4 119.301 160.4C113.401 157.9 102.201 152.2 98.4008 150.2C98.3008 150.2 98.4008 149.9 98.5008 149.9Z" fill="#263238"/>
<path d="M150.099 71.0004C150.099 71.0004 159.799 60.4004 172.499 64.3004C188.299 69.2004 188.799 112 190.699 119.9C192.599 127.8 199.299 129.8 191.599 137C183.899 144.2 172.999 146.6 161.899 146.4C150.799 146.2 142.399 141.5 140.599 136.6C139.499 133.6 141.899 130.7 142.299 125.6C142.599 122.6 135.099 72.8004 150.099 71.0004Z" fill="#263238"/>
<path d="M139.8 130.5C139.9 127.1 140.7 123.9 140.6 120.4C140.5 117 139.6 97.4002 139.3 94.0002C138.4 85.4002 139 72.2002 150.1 71.2002C150.3 71.2002 150.4 71.5002 150.1 71.5002C136.5 74.1002 140 93.3002 141.1 112.4C141.4 116.7 141.3 122.3 140.7 126.6C139.9 132.6 140.7 137.7 145.5 141.8C145.6 141.9 145.5 142.1 145.4 142C141.9 139.2 139.7 135.1 139.8 130.5Z" fill="#263238"/>
<path d="M152.3 70.6001C157.9 65.8001 164.5 61.7001 172.2 63.8001C178.8 65.6001 183.3 71.5001 185.6 77.6001C188.8 86.1001 189 111.8 192.5 120.2C193.8 123.2 196.6 126.2 196.6 129.6C196.5 132.6 194.2 133.7 191.6 134.4C191.5 134.4 191.4 134.2 191.5 134.2C197.9 132.2 195.8 127.8 193.6 123.7C192 120.8 190.9 117.8 190.1 114.5C188.5 108.1 187.6 85.2001 185.5 78.9001C183.4 72.8001 179.7 66.8001 173.3 64.5001C165.3 61.6001 158.6 65.9001 152.5 70.7001C152.3 70.8001 152.2 70.7001 152.3 70.6001Z" fill="#263238"/>
<path d="M151 70.9002C148.3 73.1002 139.8 72.0002 136.6 67.6002C132.2 61.6002 139.9 51.3002 147.5 54.9002C155.2 58.4002 153.1 69.2002 151 70.9002Z" fill="#263238"/>
<path d="M138.2 56.7998C136.6 58.6998 135.3 60.8998 134.8 63.1998C134.6 64.3998 134.6 65.4998 135 66.5998C135.4 67.5998 136.2 68.4998 137.1 69.1998C138 69.8998 139.1 70.3998 140.3 70.8998C141.4 71.3998 142.6 71.5998 143.8 71.8998C146.2 72.1998 148.7 71.9998 151 70.8998C149 72.3998 146.3 72.9998 143.7 72.7998C142.4 72.6998 141.1 72.3998 139.9 71.9998C138.7 71.4998 137.5 70.9998 136.4 70.1998C135.3 69.3998 134.4 68.2998 133.9 66.9998C133.4 65.6998 133.5 64.2998 133.8 62.9998C134.6 60.4998 136.3 58.3998 138.2 56.7998Z" fill="#263238"/>
<path d="M109.7 203.701C109.7 203.501 109.8 203.301 109.8 203.101C109.8 203.301 109.7 203.601 109.7 203.801V203.701Z" fill="#FFC727"/>
<path d="M141.5 209.301C141.4 209.401 141.3 209.401 141.2 209.501V209.401C141.3 209.301 141.4 209.301 141.5 209.301Z" fill="#FFC727"/>
<path d="M154.7 124.6C134.8 144.8 109.8 187.2 114.4 195.8C119.6 205.4 147.3 177.1 147.2 175.5C147.1 174.3 156.9 148.5 164.3 129.7C171.7 111 159.6 119.7 154.7 124.6Z" fill="#D3766A"/>
<path d="M147.401 175.5C148.201 172.7 161.501 138.8 165.301 128C169.101 117.3 165.601 113.9 154.701 123.8C143.801 133.7 120.101 166.5 114.701 184C109.501 200.8 118.101 200.8 129.601 193.1C139.001 186.7 147.401 175.5 147.401 175.5Z" fill="#9610FF"/>
<g opacity="0.26">
<path d="M147.401 175.5C148.201 172.7 161.501 138.8 165.301 128C169.101 117.3 165.601 113.9 154.701 123.8C143.801 133.7 120.101 166.5 114.701 184C109.501 200.8 118.101 200.8 129.601 193.1C139.001 186.7 147.401 175.5 147.401 175.5Z" fill="black"/>
</g>
<path d="M211.501 196C201.301 202.2 189.401 205.7 176.601 205.7C163.001 205.7 150.301 201.6 139.701 194.7L139.901 193.8L142.801 172.7C142.801 172.7 136.101 161 140.001 152.5C142.001 148.2 159.201 121.7 166.501 116.4C173.301 111.4 183.201 116.8 186.901 120.6C199.801 134.4 206.601 160.5 211.501 196Z" fill="#9610FF"/>
<path d="M139.8 193.8C140.2 190.3 140.5 186.7 140.9 183.2C141.3 179.7 141.7 176.1 142.2 172.6L142.3 172.9C140.2 170 139 166.6 138.4 163.2C138.1 161.5 138.1 159.7 138.2 157.9C138.4 156.1 138.9 154.4 139.5 152.8C140.8 149.5 142.5 146.5 144.4 143.6C146.3 140.7 148.4 137.9 150.6 135.3C148.6 138.1 146.7 141 144.9 143.9C143.1 146.8 141.5 149.9 140.3 153.1C139.7 154.7 139.2 156.3 139.1 158C139 159.7 139.1 161.4 139.4 163C139.9 166.3 141.1 169.6 143 172.4L143.1 172.6V172.8C142.6 176.3 142 179.8 141.5 183.4C141 186.8 140.4 190.3 139.8 193.8Z" fill="#263238"/>
<path d="M144.9 143.7C144.9 143.2 145 142.8 145.1 142.3C145.2 141.8 145.4 141.4 145.6 141C145.8 140.6 146 140.1 146.2 139.7C146.4 139.3 146.7 138.9 147 138.5C146.8 139.4 146.4 140.3 146 141.1C145.7 142 145.3 142.8 144.9 143.7Z" fill="#263238"/>
<path d="M154.4 169.899C158.2 169.899 162.1 170.799 165.8 171.799C169.5 172.799 177.7 176.099 179.8 176.899C179.9 176.899 179.8 176.999 179.8 176.999C176.1 176.099 175.6 175.899 171.9 174.599C168.3 173.399 164.6 172.199 160.9 171.299C158.8 170.799 156.7 170.399 154.5 170.099C154.3 170.099 154.3 169.899 154.4 169.899Z" fill="#263238"/>
<path d="M147.7 171.9C151.7 171.5 155.8 172 159.6 173V173.1C157.6 172.9 155.7 172.6 153.7 172.5C151.7 172.3 149.7 172.2 147.7 172.1C147.6 172 147.6 171.9 147.7 171.9Z" fill="#263238"/>
<path d="M114.401 195.8C118.901 202.2 131.101 203.4 161.501 209.4C165.701 210.2 179.501 182.1 175.101 181C169.501 179.6 147.401 175.4 145.801 175.3C131.901 174.4 111.401 191.5 114.401 195.8Z" fill="#D3766A"/>
<path d="M169.001 179.6C169.001 179.6 181.901 181.5 188.301 184.7C196.901 188.9 202.701 196 204.901 199.2C209.501 205.8 216.201 224.9 211.101 227.7C206.401 230.3 200.601 210.5 200.601 210.5C200.601 210.5 209.901 229.8 203.701 231.9C197.501 234 192.001 210.6 192.001 210.6C192.001 210.6 201.101 230.6 194.401 231.8C189.301 232.7 183.101 211.7 183.101 211.7C183.101 211.7 190.801 229 185.601 230.1C179.901 231.3 173.001 212.4 173.001 212.4C159.301 213 152.501 207.7 148.101 203.4C147.101 202.2 169.001 179.6 169.001 179.6Z" fill="#D3766A"/>
<path d="M197.8 203.599C199 205.799 200.2 208.099 201.2 210.399C202.2 212.699 203.1 215.099 203.8 217.499C205.6 223.399 205.9 227.399 205.8 227.099C204.8 221.299 201.5 212.999 200.5 210.599C199.5 208.299 198.7 205.999 197.8 203.599C197.8 203.499 197.7 203.599 197.8 203.599Z" fill="#263238"/>
<path d="M189.4 206.999C190.8 209.899 192.3 212.699 193.5 215.699C194.7 218.699 195.7 221.599 196.7 224.599C196.8 224.799 196.6 224.799 196.5 224.599C195.3 221.599 194 218.899 192.9 215.999C191.7 212.899 190.6 209.899 189.4 206.999C189.3 206.899 189.3 206.899 189.4 206.999Z" fill="#263238"/>
<path d="M181.6 208.499C183.9 212.799 185.5 217.599 186.9 222.299C187 222.499 186.8 222.499 186.7 222.199C185 217.599 183.8 213.999 181.5 208.599C181.4 208.499 181.5 208.499 181.6 208.499Z" fill="#263238"/>
<path d="M171.701 179.6L145.001 209.3C145.001 209.3 118.101 203.1 114.101 196.2C111.501 191.7 131.801 173.2 147.101 175.4L171.701 179.6Z" fill="#9610FF"/>
<path d="M128.801 180.2C131.301 178.4 138.201 174.2 147.101 175.3C147.201 175.3 147.201 175.4 147.101 175.4C140.401 175.2 131.401 178.7 128.901 180.2C128.801 180.4 128.801 180.2 128.801 180.2Z" fill="#263238"/>
<path d="M137.801 204.3C140.601 200.9 143.501 197.6 146.401 194.4C149.301 191.1 152.301 187.9 155.301 184.7C157.001 182.9 158.701 181.1 160.501 179.3C160.501 179.3 160.601 179.3 160.601 179.4C157.901 182.8 154.901 186.1 152.001 189.4C149.101 192.7 146.101 195.9 143.101 199.2C141.401 201 139.701 202.8 137.901 204.6C137.801 204.6 137.701 204.4 137.801 204.3Z" fill="#263238"/>
<path d="M171.7 179.2C170.1 178.7 168.4 178.4 166.7 178.1C165 177.8 163.3 177.5 161.6 177.2C158.2 176.7 151.2 175.1 145 175.2C144.9 175.2 145.3 175.5 145.4 175.5C148.4 175.3 169.5 179.6 171.3 179.7C171.2 179.8 171.2 179.9 171.1 180.1C171.1 180.2 171.1 180.3 171.2 180.2C171.4 180.1 171.6 179.9 171.8 179.7C172 179.6 172 179.3 171.7 179.2Z" fill="#263238"/>
<path d="M191.601 122.5C217.101 144.7 237.101 172.2 235.801 179C233.401 191.8 216.601 192.6 214.001 189.8C203.701 178.6 192.801 157 181.001 132.8C170.501 111.3 183.301 115.2 191.601 122.5Z" fill="#9610FF"/>
<path d="M209.801 184.801C207.901 181.901 206.201 178.901 204.401 176.001C202.601 173.001 200.801 170.101 199.101 167.101C195.701 161.201 192.501 155.201 189.401 149.101C187.701 145.701 185.901 142.201 184.201 138.701C184.101 138.601 184.001 138.701 184.001 138.801C185.601 142.901 187.301 146.801 189.201 150.801L189.101 150.701C188.701 150.101 188.301 149.601 187.901 149.001C187.101 147.901 186.401 146.801 185.601 145.601C185.501 145.501 185.401 145.601 185.501 145.701C186.301 147.301 187.301 148.801 188.301 150.301C188.801 151.001 189.301 151.701 189.901 152.301C189.901 152.301 189.901 152.301 190.001 152.401C190.801 154.201 191.701 155.901 192.601 157.601C195.801 163.701 199.201 169.701 203.001 175.501C204.101 177.101 205.101 178.701 206.301 180.301C207.401 181.901 208.601 183.401 209.801 185.001C209.801 185.001 209.901 184.901 209.801 184.801Z" fill="#263238"/>
<path d="M218.3 187.3C213.5 180.4 215.9 166.6 221.2 133.6C221.9 129 256.6 128.7 256.1 133.6C255.4 139.8 249.3 164.3 247.6 167.9C239.7 185.5 221.5 192 218.3 187.3Z" fill="#D3766A"/>
<path d="M257.2 119.899C255.9 109.399 253.9 106.899 257.5 97.3995C259.8 91.1995 256.9 86.9995 251.7 91.5995C243.2 99.0995 242.1 112.999 243.1 117.999L257.2 119.899Z" fill="#D3766A"/>
<path d="M223.6 81.3L211 123.6C210.5 124.8 211.1 125.9 212.3 125.9L234.4 126.8C235.6 126.9 237 125.9 237.6 124.7L250.2 82.4C250.7 81.2 250.1 80.1 248.9 80.1L226.8 79.2C225.6 79.1 224.1 80 223.6 81.3Z" fill="#A6A6A6"/>
<path d="M226.3 81.3002L213.7 123.6C213.2 124.8 213.8 125.9 215 125.9L237.1 126.8C238.3 126.9 239.7 125.9 240.3 124.7L252.9 82.4002C253.4 81.2002 252.8 80.1002 251.6 80.1002L229.5 79.2002C228.2 79.2002 226.8 80.1002 226.3 81.3002Z" fill="#DBDBDB"/>
<path d="M232.212 83.5184C232.28 82.4712 231.485 81.5676 230.438 81.5001C229.391 81.4326 228.488 82.2268 228.42 83.2739C228.353 84.3211 229.147 85.2246 230.194 85.2921C231.241 85.3597 232.145 84.5655 232.212 83.5184Z" fill="#263238"/>
<path d="M251.8 149.6C251.8 149.6 258.1 136 257.8 124.6C257.6 116.8 255.2 99.6998 234.7 88.3998C229.8 85.6998 221 85.2998 227.4 92.5998C231.9 97.7998 236.3 99.6998 238.4 103.2C238.4 103.2 227.1 104 224.6 109C223.5 111.2 220.6 117.4 219 122.5C219 122.5 220 123.1 221.4 123.8C221.4 123.8 219.5 128.7 222.3 136.1L251.8 149.6Z" fill="#D3766A"/>
<path d="M256.3 117.1C253.5 114.1 247.5 107.8 240.8 104.3C233.3 100.5 217.9 95.1002 215.2 100.7C213.2 104.8 218.9 107.3 218.9 107.3C218.9 107.3 212.1 106.4 211 110.5C210.1 114.2 214.6 115.9 214.6 115.9C214.6 115.9 210.4 116.1 210.1 119.8C209.8 124.3 218.8 123.2 222.4 128C223.3 129.1 256.3 117.1 256.3 117.1Z" fill="#D3766A"/>
<path d="M238.1 112.9C235 110.5 226.6 106.8 219 107.2C218.8 107.2 218.7 107.3 218.9 107.4C227.3 108.7 234.9 111.6 238.1 112.9Z" fill="#263238"/>
<path d="M234 120.3C231.1 118.5 222.3 115.1 214.6 115.8C214.4 115.8 214.4 116 214.5 116C223.4 117 230.7 119.2 234 120.3C234 120.4 234 120.4 234 120.3Z" fill="#263238"/>
<path d="M256.6 144.8L216.4 156.2C216.4 156.2 208.4 182.6 213.5 189.2C219 196.3 244.3 185.3 249.3 169.9L256.6 144.8Z" fill="#9610FF"/>
<path d="M217.699 165.299C222.199 164.299 226.599 162.999 231.099 161.799C235.499 160.499 239.999 159.299 244.399 157.899C246.899 157.099 249.399 156.399 251.799 155.499C251.899 155.499 251.799 155.399 251.799 155.399C247.299 156.399 242.899 157.699 238.399 158.899C233.999 160.099 229.499 161.399 225.099 162.799C222.599 163.599 220.099 164.299 217.699 165.199C217.499 165.199 217.599 165.399 217.699 165.299Z" fill="#263238"/>
<path d="M217.8 155.799C217.2 155.899 216.6 155.999 215.9 156.099C215.8 156.099 215.7 156.199 215.7 156.299C215 158.599 214.5 161.099 214 163.399C213.5 165.799 213.1 168.099 212.7 170.499C212.5 171.799 212.3 173.099 212.2 174.299C211.4 175.899 210.9 177.499 210.8 179.299C210.8 179.399 210.9 179.399 211 179.299C211.2 177.799 211.6 176.299 212.2 174.799C211.9 177.899 211.8 181.099 212.4 184.199C211.6 179.599 212.8 174.699 213.5 170.099C213.9 167.799 214.3 165.499 214.8 163.199C215.2 160.899 215.8 158.699 216.2 156.399C216.7 156.199 217.3 155.999 217.8 155.799C217.9 155.899 217.9 155.699 217.8 155.799Z" fill="#263238"/>
<path d="M155.2 123.4C155.2 123.4 159.4 134.2 167.1 134.2C176.4 134.2 189.6 120.8 189.6 120.8C189.6 120.8 181.2 112.8 170.3 114.4C161.1 115.7 155.2 123.4 155.2 123.4Z" fill="#D3766A"/>
<path d="M178.801 115.2C178.601 116.5 173.001 125.5 167.001 125.6C165.001 125.6 164.301 115 164.301 115L164.101 114.2L160.801 103.4L173.101 94.2L174.901 93C174.901 93 175.601 96 176.401 99.8C176.401 100 176.501 100.1 176.501 100.3C176.601 100.5 176.601 100.7 176.601 100.9C176.701 101.5 176.901 102 177.001 102.6C177.101 103 177.201 103.5 177.301 103.9C177.401 104.4 177.501 104.8 177.601 105.3C178.401 109.9 178.901 114.7 178.801 115.2Z" fill="#D3766A"/>
<path d="M178.701 113.2C170.401 114.7 165.601 112.7 163.101 111L160.801 103.5L173.101 94.2996L174.901 93.0996C174.901 93.0996 175.601 96.0996 176.401 99.8996C176.401 100.1 176.501 100.3 176.501 100.4C176.601 100.6 176.601 100.8 176.701 101C176.801 101.6 177.001 102.1 177.101 102.7C177.201 103.1 177.301 103.6 177.401 104C177.501 104.5 177.601 104.9 177.701 105.4C178.201 108.3 178.501 111.3 178.701 113.2Z" fill="#263238"/>
<path d="M184.701 85.6995C188.401 105.199 177.201 109.599 173.001 110.399C169.201 111.099 156.101 113.099 150.401 94.0995C144.701 75.0995 152.501 67.1995 161.201 65.0995C169.801 62.9995 181.001 66.1995 184.701 85.6995Z" fill="#D3766A"/>
<path d="M181.1 81.9996C180.6 81.9996 180.2 81.8996 179.7 81.8996C179.2 81.8996 178.8 81.8996 178.3 81.4996C178.1 81.2996 178 80.8996 178.2 80.5996C178.6 79.9996 179.2 79.8996 179.9 79.9996C180.6 79.9996 181.1 80.1996 181.6 80.6996C182.1 81.1996 181.7 81.9996 181.1 81.9996Z" fill="#263238"/>
<path d="M167.7 84.9993C168.2 84.8993 168.6 84.6993 169 84.5993C169.5 84.3993 169.9 84.2993 170.2 83.8993C170.4 83.6993 170.3 83.1993 170.1 82.9993C169.6 82.5993 168.9 82.5993 168.3 82.7993C167.6 82.9993 167.2 83.2993 166.8 83.8993C166.5 84.3993 167.1 85.0993 167.7 84.9993Z" fill="#263238"/>
<path d="M171.399 88.5996L171.299 88.6996C171.499 89.9996 171.599 91.5996 170.399 92.1996V92.2996C171.899 91.8996 171.799 89.7996 171.399 88.5996Z" fill="#263238"/>
<path d="M170 87.3992C167.8 87.4992 168.3 91.8992 170.3 91.6992C172.2 91.5992 171.8 87.2992 170 87.3992Z" fill="#263238"/>
<path d="M169.1 87.6994C168.7 87.9994 168.4 88.4995 168 88.4995C167.5 88.5995 167 88.1995 166.6 87.7995C166.6 87.7995 166.5 87.7995 166.5 87.8995C166.6 88.6995 167 89.5995 167.9 89.5995C168.7 89.5995 169.2 88.7995 169.4 87.9995C169.4 87.7995 169.3 87.5994 169.1 87.6994Z" fill="#263238"/>
<path d="M179.2 87.2995C179.2 87.1995 179.3 87.3995 179.3 87.3995C179.4 88.6995 179.8 90.2995 181 90.5995V90.6995C179.5 90.5995 179 88.4995 179.2 87.2995Z" fill="#263238"/>
<path d="M180.2 85.6991C182.3 85.2991 183 89.5991 181 89.9991C179.1 90.3991 178.4 86.0991 180.2 85.6991Z" fill="#263238"/>
<path d="M181.1 85.8993C181.5 86.0993 181.9 86.3993 182.3 86.3993C182.8 86.3993 183.1 85.7993 183.3 85.2993C183.3 85.1993 183.4 85.2993 183.4 85.2993C183.5 86.0993 183.4 86.9993 182.6 87.2993C181.9 87.5993 181.3 86.8993 180.9 86.0993C180.9 85.9993 181 85.7993 181.1 85.8993Z" fill="#263238"/>
<path d="M172.9 99.0999C173.2 99.3999 173.6 99.7999 174.1 99.7999C174.6 99.7999 175.1 99.5999 175.5 99.3999C175.5 99.3999 175.6 99.3999 175.6 99.4999C175.3 99.9999 174.6 100.4 173.9 100.3C173.3 100.2 173 99.6999 172.8 99.1999C172.8 98.9999 172.9 98.9999 172.9 99.0999Z" fill="#263238"/>
<path d="M177.9 93.4994C177.9 93.4994 178.4 95.4994 178.5 96.3994C178.5 96.4994 178.3 96.5994 178 96.5994C176.4 97.0994 174.6 96.6994 173.4 95.3994C173.3 95.2994 173.4 95.1994 173.5 95.2994C174.9 96.0994 176.3 96.0994 177.7 95.9994C177.7 95.6994 176.7 92.6994 176.9 92.5994C177.4 92.4994 178.5 92.6994 179.1 92.7994C178.2 88.6994 176.6 84.6994 175.7 80.5994C175.7 80.4994 175.9 80.3994 175.9 80.4994C177.9 84.4994 179.1 89.2994 180.1 93.4994C180.4 94.0994 178.3 93.6994 177.9 93.4994Z" fill="#263238"/>
<path d="M151.301 94.1999C154.501 94.0999 154.601 87.2999 154.601 87.2999C154.601 87.2999 161.101 86.6999 162.401 77.0999C162.401 77.0999 162.701 81.4999 160.201 85.0999C160.201 85.0999 171.601 82.7999 175.501 72.6999C175.501 72.6999 174.001 77.7999 172.401 79.6999C172.401 79.6999 177.101 77.8999 179.101 73.6999C179.101 73.6999 181.601 79.0999 183.301 80.4999C183.301 80.4999 180.901 60.3999 162.401 64.2999C162.401 64.2999 150.801 66.1999 147.501 75.7999C144.301 85.5999 151.301 94.1999 151.301 94.1999Z" fill="#263238"/>
<path d="M154.4 94.6001C154.4 94.6001 149.5 88.9001 146.8 90.7001C144.2 92.5001 148.3 101.1 151.7 102C155.1 102.9 156 99.7001 156 99.7001L154.4 94.6001Z" fill="#D3766A"/>
<path d="M148.101 93.0996C150.501 93.8996 151.901 95.8996 153.001 97.9996C152.201 97.1996 151.201 96.8996 150.201 97.7996C150.101 97.7996 150.201 97.8996 150.301 97.8996C151.201 97.5996 151.901 97.6996 152.601 98.3996C153.101 98.8996 153.501 99.4996 153.901 100.1C154.001 100.3 154.401 100.1 154.301 99.8996C154.301 99.8996 154.301 99.8996 154.301 99.7996C154.001 96.9996 151.301 93.0996 148.101 93.0996Z" fill="#263238"/>
<path d="M141.5 209.301C141.4 209.301 141.3 209.401 141.2 209.401C141.3 209.301 141.4 209.301 141.5 209.301Z" fill="#EB9481"/>
<path d="M109.8 203.101C109.8 203.301 109.7 203.601 109.7 203.801V203.701C109.8 203.501 109.8 203.301 109.8 203.101Z" fill="#FFC727"/>
<path d="M109.8 203.101C109.8 203.301 109.7 203.601 109.7 203.801V203.701C109.8 203.501 109.8 203.301 109.8 203.101Z" fill="#FFC727"/>
<path d="M143 212.801C142.6 212.901 142.3 213.001 142 213.001C142.3 212.901 142.7 212.801 143 212.801Z" fill="#FFC727"/>
<path d="M109.8 203.101C109.8 203.301 109.7 203.601 109.7 203.801V203.701C109.8 203.501 109.8 203.301 109.8 203.101Z" fill="#DBDBDB"/>
</g>
<defs>
<clipPath id="clip0_36_24680">
<rect width="258.3" height="232" fill="white"/>
</clipPath>
</defs>
</svg>
