<svg width="24" height="24" viewBox="0 0 24 24" fill="none" xmlns="http://www.w3.org/2000/svg">
<path d="M22.0001 12C22.0001 12.552 21.5531 13 21.0001 13H5.41413L10.7071 18.293C11.0981 18.684 11.0981 19.3161 10.7071 19.7071C10.5121 19.9021 10.2561 20 10.0001 20C9.74407 20 9.48804 19.9021 9.29304 19.7071L2.29401 12.708C2.20101 12.615 2.12797 12.5051 2.07697 12.3821C1.97597 12.1381 1.97597 11.862 2.07697 11.618C2.12797 11.495 2.20101 11.385 2.29401 11.292L9.29304 4.29301C9.68403 3.90201 10.3161 3.90201 10.7071 4.29301C11.0981 4.68401 11.0981 5.31607 10.7071 5.70707L5.41413 11H21.0001C21.5531 11 22.0001 11.448 22.0001 12Z" fill="#25314C"/>
</svg>
