<svg width="24" height="24" viewBox="0 0 24 24" fill="none" xmlns="http://www.w3.org/2000/svg">
<path d="M19.457 10.797C19.377 10.616 19.198 10.5 19 10.5H14.5V3.00001C14.5 2.79301 14.373 2.60701 14.179 2.53301C13.984 2.45801 13.767 2.512 13.628 2.665L4.62799 12.665C4.49599 12.812 4.46202 13.022 4.54302 13.203C4.62302 13.384 4.80199 13.5 4.99999 13.5H9.49999V21C9.49999 21.207 9.62698 21.393 9.82098 21.467C9.87998 21.489 9.93999 21.5 9.99999 21.5C10.139 21.5 10.275 21.442 10.372 21.334L19.372 11.334C19.504 11.188 19.537 10.977 19.457 10.797Z" fill="#ef6d44"/>
</svg>
