<svg width="28" height="28" viewBox="0 0 28 28" fill="none" xmlns="http://www.w3.org/2000/svg">
<path d="M22.5595 6.90393L25.3636 4.0893C25.5591 3.89306 25.6663 3.633 25.6663 3.35756C25.6663 3.08213 25.5591 2.82206 25.3636 2.62583C24.9738 2.23573 24.2966 2.23573 23.9068 2.62583L21.1027 5.44164L18.2974 2.62583C17.9076 2.23573 17.2304 2.23573 16.8406 2.62583C16.6462 2.82206 16.5391 3.08213 16.5391 3.35756C16.5391 3.633 16.6462 3.89306 16.8406 4.0893L19.6447 6.90393L16.8406 9.71856C16.6462 9.9148 16.5391 10.1749 16.5391 10.4503C16.5391 10.7257 16.6462 10.9858 16.8406 11.182C17.2304 11.5721 17.9076 11.5721 18.2974 11.182L21.1027 8.36622L23.9068 11.182C24.1023 11.3771 24.3602 11.4847 24.6358 11.4847C24.9114 11.4847 25.1693 11.3771 25.3636 11.182C25.5591 10.9858 25.6663 10.7257 25.6663 10.4503C25.6663 10.1749 25.5591 9.9148 25.3636 9.71856L22.5595 6.90393Z" fill="white"/>
<path fill-rule="evenodd" clip-rule="evenodd" d="M12.87 15.1345C17.524 19.7871 18.5797 14.4045 21.5429 17.3656C24.3997 20.2215 26.0416 20.7937 22.4221 24.4122C21.9687 24.7765 19.0882 29.16 8.96504 19.0396C-1.15938 8.918 3.22152 6.03452 3.58597 5.58127C7.21419 1.95282 7.77651 3.60428 10.6332 6.46022C13.5964 9.42258 8.21611 10.4818 12.87 15.1345Z" fill="white"/>
</svg>
