<svg width="25" height="24" viewBox="0 0 25 24" fill="none" xmlns="http://www.w3.org/2000/svg">
<path fill-rule="evenodd" clip-rule="evenodd" d="M19.6729 19.0699C16.6168 22.1263 12.0913 22.7867 8.38798 21.074C7.84127 20.8539 7.39305 20.676 6.96693 20.676C5.78005 20.683 4.30273 21.8339 3.53492 21.067C2.76712 20.2991 3.91883 18.8206 3.91883 17.6266C3.91883 17.2004 3.74798 16.7602 3.52789 16.2124C1.81439 12.5096 2.47567 7.98269 5.53182 4.92721C9.43316 1.02443 15.7716 1.02443 19.6729 4.9262C23.5813 8.83501 23.5743 15.1681 19.6729 19.0699Z" stroke="#9E9E9E" stroke-width="1.5" stroke-linecap="round" stroke-linejoin="round"/>
<path d="M16.5404 12.413H16.5494" stroke="#9E9E9E" stroke-width="2" stroke-linecap="round" stroke-linejoin="round"/>
<path d="M12.5326 12.413H12.5416" stroke="#9E9E9E" stroke-width="2" stroke-linecap="round" stroke-linejoin="round"/>
<path d="M8.52284 12.413H8.53184" stroke="#9E9E9E" stroke-width="2" stroke-linecap="round" stroke-linejoin="round"/>
</svg>
