<svg width="25" height="24" viewBox="0 0 25 24" fill="none" xmlns="http://www.w3.org/2000/svg">
<path fill-rule="evenodd" clip-rule="evenodd" d="M2.60156 12.015C2.60156 6.74712 6.81156 2 12.6216 2C18.3016 2 22.6016 6.65699 22.6016 11.985C22.6016 18.1642 17.5616 22 12.6016 22C10.9616 22 9.14156 21.5593 7.68156 20.698C7.17156 20.3876 6.74156 20.1572 6.19156 20.3375L4.17156 20.9384C3.66156 21.0986 3.20156 20.698 3.35156 20.1572L4.02156 17.9139C4.13156 17.6034 4.11156 17.2729 3.95156 17.0125C3.09156 15.4301 2.60156 13.6975 2.60156 12.015ZM11.3016 12.015C11.3016 12.7261 11.8716 13.2969 12.5816 13.307C13.2916 13.307 13.8616 12.7261 13.8616 12.025C13.8616 11.314 13.2916 10.7431 12.5816 10.7431C11.8816 10.7331 11.3016 11.314 11.3016 12.015ZM15.9116 12.025C15.9116 12.7261 16.4816 13.307 17.1916 13.307C17.9016 13.307 18.4716 12.7261 18.4716 12.025C18.4716 11.314 17.9016 10.7431 17.1916 10.7431C16.4816 10.7431 15.9116 11.314 15.9116 12.025ZM7.97156 13.307C7.27156 13.307 6.69156 12.7261 6.69156 12.025C6.69156 11.314 7.26156 10.7431 7.97156 10.7431C8.68156 10.7431 9.25156 11.314 9.25156 12.025C9.25156 12.7261 8.68156 13.2969 7.97156 13.307Z" fill="#9610FF"/>
</svg>
