<svg width="25" height="24" viewBox="0 0 25 24" fill="none" xmlns="http://www.w3.org/2000/svg">
<path fill-rule="evenodd" clip-rule="evenodd" d="M2.40039 12C2.40039 6.48 6.87039 2 12.4004 2C17.9204 2 22.4004 6.48 22.4004 12C22.4004 17.53 17.9204 22 12.4004 22C6.87039 22 2.40039 17.53 2.40039 12ZM14.6304 13.83L16.2504 8.71C16.3604 8.36 16.0404 8.03 15.6904 8.14L10.5704 9.74C10.3604 9.81 10.1904 9.97 10.1304 10.18L8.53039 15.31C8.42039 15.65 8.75039 15.98 9.09039 15.87L14.1904 14.27C14.4004 14.21 14.5704 14.04 14.6304 13.83Z" fill="#9610FF"/>
</svg>
