<svg width="25" height="25" viewBox="0 0 25 25" fill="none" xmlns="http://www.w3.org/2000/svg">
<g clip-path="url(#clip0_260_8019)">
<path d="M12.5 0.799805C5.8724 0.799805 0.5 6.1722 0.5 12.7998C0.5 19.4274 5.8724 24.7998 12.5 24.7998C19.1276 24.7998 24.5 19.4274 24.5 12.7998C24.5 6.1722 19.1276 0.799805 12.5 0.799805Z" fill="url(#paint0_linear_260_8019)"/>
<path d="M14.2281 17.6581H17.4846L17.9961 14.3499H14.2281V12.5417C14.2281 11.1676 14.6773 9.94891 15.9627 9.94891H18.0282V7.06228C17.6652 7.01321 16.8976 6.90625 15.4474 6.90625C12.4186 6.90625 10.6431 8.5056 10.6431 12.1497V14.3506H7.5293V17.6587H10.6424V26.7515C11.259 26.8433 11.8838 26.9062 12.5249 26.9062C13.1044 26.9062 13.67 26.8534 14.2281 26.7779V17.6581Z" fill="white"/>
</g>
<defs>
<linearGradient id="paint0_linear_260_8019" x1="4.0958" y1="4.3956" x2="22.469" y2="22.7688" gradientUnits="userSpaceOnUse">
<stop stop-color="#2AA4F4"/>
<stop offset="1" stop-color="#007AD9"/>
</linearGradient>
<clipPath id="clip0_260_8019">
<rect width="24" height="24" fill="white" transform="translate(0.5 0.799805)"/>
</clipPath>
</defs>
</svg>
