<svg width="40" height="41" viewBox="0 0 40 41" fill="none" xmlns="http://www.w3.org/2000/svg">
<path fill-rule="evenodd" clip-rule="evenodd" d="M26.4164 4.7698C27.468 4.7698 28.518 4.91813 29.5164 5.25313C35.668 7.25313 37.8847 14.0031 36.033 19.9031C34.983 22.9181 33.2664 25.6698 31.018 27.9181C27.7997 31.0348 24.268 33.8015 20.4664 36.1848L20.0497 36.4365L19.6164 36.1681C15.8014 33.8015 12.2497 31.0348 9.00137 27.9015C6.76804 25.6531 5.0497 22.9181 3.98304 19.9031C2.0997 14.0031 4.31637 7.25313 10.5347 5.21813C11.018 5.05146 11.5164 4.9348 12.0164 4.8698H12.2164C12.6847 4.80146 13.1497 4.7698 13.6164 4.7698H13.7997C14.8497 4.80146 15.8664 4.9848 16.8514 5.3198H16.9497C17.0164 5.35146 17.0664 5.38646 17.0997 5.41813C17.468 5.53646 17.8164 5.6698 18.1497 5.85313L18.783 6.13646C18.9361 6.21808 19.1078 6.3428 19.2563 6.45058C19.3504 6.51887 19.4351 6.58037 19.4997 6.6198C19.5269 6.63585 19.5546 6.65198 19.5824 6.66825C19.7253 6.75167 19.8742 6.83857 19.9997 6.9348C21.8514 5.5198 24.0997 4.75313 26.4164 4.7698ZM30.8497 16.7698C31.533 16.7515 32.1164 16.2031 32.1664 15.5015V15.3031C32.2164 12.9681 30.8014 10.8531 28.6497 10.0365C27.9664 9.80146 27.2164 10.1698 26.9664 10.8698C26.733 11.5698 27.0997 12.3365 27.7997 12.5848C28.868 12.9848 29.583 14.0365 29.583 15.2015V15.2531C29.5514 15.6348 29.6664 16.0031 29.8997 16.2865C30.133 16.5698 30.483 16.7348 30.8497 16.7698Z" fill="url(#paint0_linear_36_21858)"/>
<defs>
<linearGradient id="paint0_linear_36_21858" x1="36.6667" y1="36.4365" x2="-2.66785" y2="24.4315" gradientUnits="userSpaceOnUse">
<stop stop-color="#FF4D67"/>
<stop offset="1" stop-color="#FF8A9B"/>
</linearGradient>
</defs>
</svg>
