<svg width="25" height="24" viewBox="0 0 25 24" fill="none" xmlns="http://www.w3.org/2000/svg">
<path d="M9.93458 20.7733V17.7156C9.93458 16.9351 10.572 16.3023 11.3582 16.3023H14.2324C14.61 16.3023 14.9721 16.4512 15.2391 16.7163C15.5061 16.9813 15.6561 17.3408 15.6561 17.7156V20.7733C15.6537 21.0978 15.7819 21.4099 16.0122 21.6402C16.2425 21.8705 16.5559 22 16.8827 22H18.8436C19.7594 22.0023 20.6386 21.6428 21.287 21.0008C21.9354 20.3588 22.2998 19.487 22.2998 18.5778V9.86686C22.2998 9.13246 21.9719 8.43584 21.4044 7.96467L14.7338 2.67587C13.5735 1.74856 11.9109 1.7785 10.7852 2.74698L4.26682 7.96467C3.67255 8.42195 3.31736 9.12064 3.2998 9.86686V18.5689C3.2998 20.4639 4.84719 22 6.75598 22H8.67209C9.35103 22 9.9028 21.4562 9.90772 20.7822L9.93458 20.7733Z" fill="#9610FF"/>
</svg>
