<svg width="25" height="24" viewBox="0 0 25 24" fill="none" xmlns="http://www.w3.org/2000/svg">
<path d="M9.958 20.7714V17.7047C9.95798 16.9246 10.5939 16.2908 11.3818 16.2856H14.2679C15.0595 16.2856 15.7013 16.9209 15.7013 17.7047V17.7047V20.7809C15.7011 21.4432 16.235 21.9845 16.9038 22H18.8279C20.7459 22 22.3008 20.4607 22.3008 18.5618V18.5618V9.83784C22.2905 9.09083 21.9363 8.38935 21.3388 7.93303L14.7585 2.6853C13.6057 1.77157 11.967 1.77157 10.8142 2.6853L4.26281 7.94256C3.66304 8.39702 3.30817 9.09967 3.30078 9.84736V18.5618C3.30078 20.4607 4.85566 22 6.77369 22H8.69774C9.38314 22 9.93876 21.4499 9.93876 20.7714V20.7714" stroke="#9E9E9E" stroke-width="1.5" stroke-linecap="round" stroke-linejoin="round"/>
</svg>
