<svg width="32" height="33" viewBox="0 0 32 33" fill="none" xmlns="http://www.w3.org/2000/svg">
<path d="M24.9464 10.1131C24.8225 9.98818 24.675 9.88898 24.5125 9.82129C24.3501 9.7536 24.1758 9.71875 23.9998 9.71875C23.8238 9.71875 23.6495 9.7536 23.487 9.82129C23.3245 9.88898 23.1771 9.98818 23.0531 10.1131L13.1198 20.0598L8.94644 15.8731C8.81774 15.7488 8.66582 15.6511 8.49935 15.5855C8.33287 15.5199 8.15511 15.4877 7.9762 15.4908C7.79729 15.4939 7.62075 15.5322 7.45664 15.6035C7.29254 15.6748 7.14409 15.7778 7.01977 15.9065C6.89545 16.0352 6.7977 16.1871 6.73209 16.3536C6.66649 16.52 6.63432 16.6978 6.63741 16.8767C6.64051 17.0556 6.67881 17.2322 6.75013 17.3963C6.82146 17.5604 6.92441 17.7088 7.0531 17.8331L12.1731 22.9531C12.2971 23.0781 12.4445 23.1773 12.607 23.245C12.7695 23.3127 12.9438 23.3475 13.1198 23.3475C13.2958 23.3475 13.4701 23.3127 13.6325 23.245C13.795 23.1773 13.9425 23.0781 14.0664 22.9531L24.9464 12.0731C25.0818 11.9483 25.1898 11.7968 25.2637 11.6281C25.3375 11.4594 25.3757 11.2773 25.3757 11.0931C25.3757 10.909 25.3375 10.7269 25.2637 10.5582C25.1898 10.3895 25.0818 10.238 24.9464 10.1131Z" fill="#212121"/>
</svg>
