<svg width="12" height="13" viewBox="0 0 12 13" fill="none" xmlns="http://www.w3.org/2000/svg">
<path fill-rule="evenodd" clip-rule="evenodd" d="M1.75 5.58173C1.75 3.2818 3.67194 1.42285 5.99672 1.42285C8.32806 1.42285 10.25 3.2818 10.25 5.58173C10.25 6.7407 9.8285 7.81667 9.13475 8.72864C8.3694 9.73461 7.42608 10.6111 6.36427 11.2991C6.12126 11.4581 5.90194 11.4701 5.63522 11.2991C4.56737 10.6111 3.62404 9.73461 2.86525 8.72864C2.17099 7.81667 1.75 6.7407 1.75 5.58173ZM4.59711 5.71123C4.59711 6.4817 5.22583 7.08769 5.99672 7.08769C6.76812 7.08769 7.40289 6.4817 7.40289 5.71123C7.40289 4.94675 6.76812 4.31127 5.99672 4.31127C5.22583 4.31127 4.59711 4.94675 4.59711 5.71123Z" fill="white"/>
</svg>
