<svg width="32" height="48" viewBox="0 0 32 48" fill="none" xmlns="http://www.w3.org/2000/svg">
<path d="M22.1844 39.5C21.3244 40.79 20.5044 41.98 19.7544 43.05C18.8944 44.27 17.4944 45 16.0044 45C14.5044 45 13.1044 44.27 12.2444 43.05C11.4944 41.98 10.6744 40.79 9.81439 39.5C5.46442 40.25 2.48438 41.76 2.48438 43.51C2.48438 45.98 8.53436 48 16.0044 48C23.4644 48 29.5144 45.98 29.5144 43.51C29.5144 41.76 26.5344 40.25 22.1844 39.5Z" fill="#9610FF"/>
<path d="M18.5241 42.19C22.9941 35.81 31.8341 22.37 31.8341 15.83C31.8341 7.08997 24.7441 0 16.0041 0C7.25409 0 0.164062 7.08997 0.164062 15.83C0.164062 22.37 9.00409 35.81 13.4741 42.19C14.7041 43.94 17.2941 43.94 18.5241 42.19ZM5.24408 15.61C5.24408 9.66998 10.0641 4.85999 16.0041 4.85999C21.9341 4.85999 26.7541 9.66998 26.7541 15.61C26.7541 21.55 21.9341 26.37 16.0041 26.37C10.0641 26.37 5.24408 21.55 5.24408 15.61Z" fill="#9610FF"/>
<path d="M22.0274 14.0501C22.0812 12.4622 21.073 11.0676 19.5286 10.6944C18.3233 10.4032 17.1801 10.7853 16.4111 11.541C16.1871 11.7611 15.8158 11.7594 15.5915 11.5398C14.8318 10.796 13.7161 10.4146 12.519 10.6821C10.9705 11.0281 9.94073 12.4027 9.97137 13.9891C10.0301 17.0302 13.3881 19.3837 15.0675 20.3724C15.6456 20.7127 16.3599 20.713 16.9377 20.3724C18.6043 19.3903 21.9255 17.0616 22.0274 14.0501Z" fill="#9610FF"/>
</svg>
