<svg width="22" height="26" viewBox="0 0 22 26" fill="none" xmlns="http://www.w3.org/2000/svg">
<path fill-rule="evenodd" clip-rule="evenodd" d="M11.1511 25.5417H11.1488C9.84095 25.5405 8.60312 24.9642 7.66395 23.9177C7.34078 23.5595 7.36995 23.0054 7.72928 22.6834C8.08862 22.359 8.64162 22.3882 8.96478 22.7487C9.56912 23.4219 10.3449 23.7917 11.1499 23.7917H11.1511C11.9596 23.7917 12.7389 23.4219 13.3444 22.7475C13.6688 22.3894 14.2218 22.3602 14.5799 22.6834C14.9393 23.0065 14.9684 23.5607 14.6453 23.9189C13.7026 24.9654 12.4624 25.5417 11.1511 25.5417Z" fill="#212121"/>
<mask id="mask0_36_22903" style="mask-type:luminance" maskUnits="userSpaceOnUse" x="0" y="0" width="22" height="21">
<path fill-rule="evenodd" clip-rule="evenodd" d="M0.419922 0.458008H21.9997V20.6973H0.419922V0.458008Z" fill="white"/>
</mask>
<g mask="url(#mask0_36_22903)">
<path fill-rule="evenodd" clip-rule="evenodd" d="M11.2081 2.20801C7.1306 2.20801 4.2886 5.40234 4.2886 8.26884C4.2886 10.6943 3.61544 11.8155 3.02044 12.8048C2.54327 13.5993 2.16644 14.227 2.16644 15.5908C2.36127 17.7912 3.81377 18.9473 11.2081 18.9473C18.5616 18.9473 20.0596 17.7398 20.2533 15.515C20.2498 14.227 19.8729 13.5993 19.3958 12.8048C18.8008 11.8155 18.1276 10.6943 18.1276 8.26884C18.1276 5.40234 15.2856 2.20801 11.2081 2.20801ZM11.2081 20.6973C5.75277 20.6973 0.822437 20.3123 0.419937 15.6655C0.416437 13.7428 1.00327 12.7652 1.52127 11.9042C2.0451 11.0315 2.5386 10.209 2.5386 8.26884C2.5386 4.49701 6.02227 0.458008 11.2081 0.458008C16.3939 0.458008 19.8776 4.49701 19.8776 8.26884C19.8776 10.209 20.3711 11.0315 20.8949 11.9042C21.4129 12.7652 21.9998 13.7428 21.9998 15.5908C21.5926 20.3123 16.6634 20.6973 11.2081 20.6973Z" fill="#212121"/>
</g>
</svg>
