<svg width="20" height="21" viewBox="0 0 20 21" fill="none" xmlns="http://www.w3.org/2000/svg">
<path d="M18.385 6.23184L14.2686 2.11622C14.1525 2.00011 14.0147 1.90801 13.863 1.84518C13.7113 1.78234 13.5488 1.75 13.3846 1.75C13.2204 1.75 13.0578 1.78234 12.9062 1.84518C12.7545 1.90801 12.6167 2.00011 12.5006 2.11622L1.61622 12.9998C1.50011 13.1159 1.40801 13.2537 1.34518 13.4054C1.28234 13.5571 1.25 13.7196 1.25 13.8838C1.25 14.048 1.28234 14.2105 1.34518 14.3622C1.40801 14.5139 1.50011 14.6517 1.61622 14.7678L5.73262 18.8834C5.8487 18.9995 5.98651 19.0916 6.13819 19.1544C6.28986 19.2173 6.45243 19.2496 6.61661 19.2496C6.78078 19.2496 6.94335 19.2173 7.09503 19.1544C7.2467 19.0916 7.38452 18.9995 7.50059 18.8834L18.385 7.99981C18.5011 7.88373 18.5932 7.74592 18.656 7.59425C18.7188 7.44257 18.7512 7.28 18.7512 7.11583C18.7512 6.95165 18.7188 6.78908 18.656 6.63741C18.5932 6.48573 18.5011 6.34792 18.385 6.23184ZM6.61622 17.9998L2.50059 13.8834L5.00059 11.3834L7.05841 13.442C7.11647 13.5001 7.18541 13.5461 7.26128 13.5776C7.33715 13.609 7.41847 13.6252 7.50059 13.6252C7.58272 13.6252 7.66403 13.609 7.7399 13.5776C7.81577 13.5461 7.88471 13.5001 7.94278 13.442C8.00085 13.3839 8.04691 13.315 8.07834 13.2391C8.10977 13.1632 8.12594 13.0819 8.12594 12.9998C8.12594 12.9177 8.10977 12.8364 8.07834 12.7605C8.04691 12.6846 8.00085 12.6157 7.94278 12.5576L5.88419 10.4998L7.50059 8.8834L9.55841 10.942C9.67568 11.0593 9.83474 11.1252 10.0006 11.1252C10.1664 11.1252 10.3255 11.0593 10.4428 10.942C10.5601 10.8247 10.6259 10.6657 10.6259 10.4998C10.6259 10.334 10.5601 10.1749 10.4428 10.0576L8.38419 7.99981L10.0006 6.3834L12.0584 8.442C12.1165 8.50007 12.1854 8.54613 12.2613 8.57756C12.3372 8.60898 12.4185 8.62516 12.5006 8.62516C12.5827 8.62516 12.664 8.60898 12.7399 8.57756C12.8158 8.54613 12.8847 8.50007 12.9428 8.442C13.0009 8.38393 13.0469 8.31499 13.0783 8.23912C13.1098 8.16325 13.1259 8.08193 13.1259 7.99981C13.1259 7.91769 13.1098 7.83637 13.0783 7.7605C13.0469 7.68463 13.0009 7.61569 12.9428 7.55762L10.8842 5.49981L13.3842 2.99981L17.5006 7.11622L6.61622 17.9998Z" fill="#212121"/>
</svg>
