<svg width="24" height="25" viewBox="0 0 24 25" fill="none" xmlns="http://www.w3.org/2000/svg">
<mask id="mask0_1005_7159" style="mask-type:luminance" maskUnits="userSpaceOnUse" x="4" y="2" width="17" height="21">
<path fill-rule="evenodd" clip-rule="evenodd" d="M4 2.50049H20.9668V22.8561H4V2.50049Z" fill="white"/>
</mask>
<g mask="url(#mask0_1005_7159)">
<path fill-rule="evenodd" clip-rule="evenodd" d="M12.4834 4C11.6354 4 6.28541 5.884 5.66841 6.399C5.48641 6.582 5.47941 6.9 5.51841 9.029C5.53641 10.055 5.56141 11.449 5.56141 13.379C5.56141 18.58 11.2834 20.889 12.4824 21.314C13.6804 20.887 19.4054 18.565 19.4054 13.379C19.4054 11.447 19.4304 10.052 19.4494 9.026C19.4874 6.899 19.4804 6.581 19.2874 6.389C18.6824 5.884 13.3314 4 12.4834 4ZM12.4834 22.856C12.4104 22.856 12.3374 22.846 12.2664 22.824C11.9314 22.723 4.06141 20.261 4.06141 13.379C4.06141 11.462 4.03641 10.075 4.01841 9.057C3.97241 6.514 3.96241 5.984 4.61941 5.328C5.40441 4.541 11.3494 2.5 12.4834 2.5C13.6164 2.5 19.5614 4.541 20.3484 5.328C21.0044 5.984 20.9944 6.514 20.9484 9.054C20.9304 10.072 20.9054 11.459 20.9054 13.379C20.9054 20.261 13.0354 22.723 12.7004 22.824C12.6294 22.846 12.5564 22.856 12.4834 22.856Z" fill="#212121"/>
</g>
<path fill-rule="evenodd" clip-rule="evenodd" d="M11.7766 15.0194C11.5776 15.0194 11.3866 14.9404 11.2456 14.7994L9.35364 12.9054C9.06164 12.6124 9.06164 12.1364 9.35464 11.8444C9.64664 11.5514 10.1226 11.5514 10.4156 11.8444L11.7766 13.2074L15.1446 9.83938C15.4376 9.54638 15.9116 9.54638 16.2046 9.83938C16.4976 10.1324 16.4976 10.6074 16.2046 10.9004L12.3066 14.7994C12.1666 14.9404 11.9756 15.0194 11.7766 15.0194Z" fill="#212121"/>
</svg>
