<svg width="22" height="23" viewBox="0 0 22 23" fill="none" xmlns="http://www.w3.org/2000/svg">
<path fill-rule="evenodd" clip-rule="evenodd" d="M19.6772 3.01285C19.6341 2.93218 19.569 2.86618 19.4884 2.8231C17.5762 1.8056 6.1371 5.35126 3.1781 7.0581C2.40718 7.50268 2.06343 8.02518 2.15785 8.60818C2.4301 10.2967 6.97952 11.5763 9.4481 12.1493L14.0837 7.5146C14.3523 7.24601 14.7877 7.24601 15.0563 7.5146C15.3249 7.78318 15.3249 8.2186 15.0563 8.48718L10.3758 13.1658C10.9634 15.6601 12.2293 20.0738 13.8912 20.3415C13.9535 20.3516 14.0159 20.3571 14.0773 20.3571C14.5851 20.3571 15.0434 20.0088 15.4404 19.3213C17.1472 16.365 20.6956 4.92776 19.6772 3.01285Z" fill="white"/>
</svg>
