<svg width="28" height="28" viewBox="0 0 28 28" fill="none" xmlns="http://www.w3.org/2000/svg">
<path fill-rule="evenodd" clip-rule="evenodd" d="M14.0007 11.0834C15.6117 11.0834 16.9173 12.389 16.9173 14C16.9173 15.6111 15.6117 16.9167 14.0007 16.9167C12.3896 16.9167 11.084 15.6111 11.084 14C11.084 12.389 12.3896 11.0834 14.0007 11.0834Z" stroke="#212121" stroke-width="1.5" stroke-linecap="round" stroke-linejoin="round"/>
<path fill-rule="evenodd" clip-rule="evenodd" d="M23.53 8.45864V8.45864C22.7325 7.06768 20.9671 6.59173 19.5873 7.39496C18.387 8.09217 16.8871 7.2198 16.8871 5.82423C16.8871 4.21891 15.5942 2.91669 14.0004 2.91669V2.91669C12.4066 2.91669 11.1137 4.21891 11.1137 5.82423C11.1137 7.2198 9.61371 8.09217 8.41464 7.39496C7.03366 6.59173 5.26824 7.06768 4.47077 8.45864C3.67444 9.8496 4.14697 11.6278 5.52796 12.4299C6.72703 13.1282 6.72703 14.8718 5.52796 15.5702C4.14697 16.3734 3.67444 18.1516 4.47077 19.5414C5.26824 20.9324 7.03366 21.4083 8.4135 20.6062H8.41464C9.61371 19.9079 11.1137 20.7802 11.1137 22.1758V22.1758C11.1137 23.7811 12.4066 25.0834 14.0004 25.0834V25.0834C15.5942 25.0834 16.8871 23.7811 16.8871 22.1758V22.1758C16.8871 20.7802 18.387 19.9079 19.5873 20.6062C20.9671 21.4083 22.7325 20.9324 23.53 19.5414C24.3275 18.1516 23.8538 16.3734 22.4739 15.5702H22.4728C21.2737 14.8718 21.2737 13.1282 22.4739 12.4299C23.8538 11.6278 24.3275 9.8496 23.53 8.45864Z" stroke="#212121" stroke-width="1.5" stroke-linecap="round" stroke-linejoin="round"/>
</svg>
