<svg width="28" height="28" viewBox="0 0 28 28" fill="none" xmlns="http://www.w3.org/2000/svg">
<path d="M24.5 6.125H20.3478C19.2967 6.125 19.2523 5.992 18.9642 5.12866L18.7285 4.4205C18.3703 3.34717 17.3705 2.625 16.2388 2.625H11.7612C10.6295 2.625 9.6285 3.346 9.2715 4.4205L9.03584 5.12866C8.74767 5.99316 8.70333 6.125 7.65216 6.125H3.5C3.017 6.125 2.625 6.517 2.625 7C2.625 7.483 3.017 7.875 3.5 7.875H5.01433L5.90917 21.2905C6.08184 23.8863 7.67317 25.375 10.2748 25.375H17.7263C20.3268 25.375 21.9182 23.8863 22.092 21.2905L22.9868 7.875H24.5C24.983 7.875 25.375 7.483 25.375 7C25.375 6.517 24.983 6.125 24.5 6.125ZM10.9317 4.9735C11.0518 4.61533 11.3843 4.375 11.7612 4.375H16.2388C16.6157 4.375 16.9493 4.61533 17.0683 4.9735L17.304 5.68166C17.3553 5.83449 17.4067 5.98267 17.4627 6.125H10.535C10.591 5.9815 10.6435 5.83333 10.6948 5.68166L10.9317 4.9735ZM20.3443 21.1738C20.2335 22.8457 19.4005 23.625 17.7252 23.625H10.2737C8.59833 23.625 7.7665 22.8468 7.6545 21.1738L6.76784 7.875H7.651C7.79683 7.875 7.91817 7.85984 8.04884 7.8505C8.0885 7.85634 8.12467 7.875 8.1655 7.875H19.8322C19.8742 7.875 19.9092 7.85634 19.9488 7.8505C20.0795 7.85984 20.2008 7.875 20.3467 7.875H21.2298L20.3443 21.1738ZM17.2083 12.8333V18.6667C17.2083 19.1497 16.8163 19.5417 16.3333 19.5417C15.8503 19.5417 15.4583 19.1497 15.4583 18.6667V12.8333C15.4583 12.3503 15.8503 11.9583 16.3333 11.9583C16.8163 11.9583 17.2083 12.3503 17.2083 12.8333ZM12.5417 12.8333V18.6667C12.5417 19.1497 12.1497 19.5417 11.6667 19.5417C11.1837 19.5417 10.7917 19.1497 10.7917 18.6667V12.8333C10.7917 12.3503 11.1837 11.9583 11.6667 11.9583C12.1497 11.9583 12.5417 12.3503 12.5417 12.8333Z" fill="#F75555"/>
</svg>
